<?xml version="1.0" encoding="utf-8"?>
<!-- Generator: Adobe Illustrator 22.1.0, SVG Export Plug-In . SVG Version: 6.00 Build 0)  -->
<svg version="1.1" id="Слой_1" xmlns="http://www.w3.org/2000/svg" xmlns:xlink="http://www.w3.org/1999/xlink" x="0px" y="0px"
	 viewBox="0 0 444 221" style="enable-background:new 0 0 444 221;" xml:space="preserve">
<style type="text/css">
	.st0{fill:url(#SVGID_1_);}
	.st1{fill:#FFFFFF;}
	.st2{fill:url(#SVGID_2_);}
	.st3{fill:url(#SVGID_3_);}
	.st4{fill:url(#SVGID_4_);}
	.st5{fill:url(#SVGID_5_);}
	.st6{fill:url(#SVGID_6_);}
	.st7{fill:url(#SVGID_7_);}
</style>
<g>
	<linearGradient id="SVGID_1_" gradientUnits="userSpaceOnUse" x1="83.048" y1="102.2653" x2="453.22" y2="102.2653">
		<stop  offset="0" style="stop-color:#EE2A7B"/>
		<stop  offset="1" style="stop-color:#2484C6;stop-opacity:0"/>
	</linearGradient>
	<path class="st0" d="M123.3,139.2c-6,0.5-11.9,1-17.9,1.6c-3.9-3.1-3.3-9.3-0.7-13.5c2.6-4.2,6.7-7.2,9.7-11.2
		c3.1-4.2,4.8-9.3,6.6-14.3c3.9-10.8,9-21.5,17.1-29.7s19.6-13.6,31-12.1c11.4,1.5,21.9,11.3,22,22.8c6.3-16.6,13.1-33.8,26.2-45.7
		s34.7-16.5,48.5-5.5c6.2,5,10.1,12.3,13.2,19.7c4.1,9.8,7.2,20,9.3,30.4c5.7-9.2,11.6-18.7,20-25.5s20.1-10.7,30.4-7.1
		c13,4.5,19.5,18.8,24.6,31.6c3.8,9.5,7.5,19,11.3,28.6c5.6-8.9,13.4-19,23.8-17.9c9.8,1,15.6,11.2,23.7,16.7
		c9.3,6.2,22.6,5.6,31.3-1.5c-6.5,11.9-20,19.6-33.6,19.3c-3.2-0.1-6.8-0.5-9.4,1.5c-2,1.5-2.9,4.1-3.8,6.5
		c-6.1,16-19.6,29.1-35.9,34.5c-16.3,5.4-34.9,3.2-49.4-6c-2.6-1.7-5.3-3.6-8.3-3.9c-4.2-0.5-8.1,2-11.7,4.2
		c-15.1,9.4-32.2,15.9-49.9,16.6s-36-4.8-49-16.9c-25.3,21.9-67.8,20.1-91.1-3.9c-10,7.8-26.8-1.2-28-13.8
		c-1.2-12.6,10.4-24.1,23-25.4c1.4,7.6,7.8,14.1,15.3,15.6"/>
</g>
<g>
	<path d="M274,168.4c-26.8,1.9-53.9-1.7-79.3-10.4c-6.8-2.4-13.8-5.3-18.5-10.7c-6.9-8-7.5-19.6-7.6-30.2c-0.1-11.3,0-23.3,6-32.9
		c5.3-8.4,14.4-13.6,23.6-17.1c5.2-1.9,10.6-3.5,15.3-6.4c10.4-6.4,15.8-18.3,20.7-29.5c8,1.3,8.3,12.7,12.8,19.5
		c4.2,6.4,12.7,8.5,20.3,8.4c7.6-0.1,15.3-2,22.9-1.3c11.2,0.9,24.8,6.4,32.1-2.1c4.1-4.8,5.7-13.5,12-13.4
		c-1.1,11.9,3.1,24.2,11.3,33c3.8,4.1,8.5,7.4,12.2,11.6c11.3,12.7,12.6,32.5,5.2,47.8s-22.2,26.2-38.4,31.3
		c-16.2,5.1-33.6,5.1-50.5,2.7"/>
	<g>
		<path d="M274,165.9c-17.9,1.2-35.8,0.1-53.4-3.4c-8.6-1.7-17-4-25.3-6.9c-7.6-2.6-15.3-6-19.6-13.2c-3.9-6.6-4.4-14.7-4.6-22.2
			c-0.2-7.8-0.4-15.8,1.3-23.4c3.9-18,18.9-24,34.3-30c15.9-6.1,23.2-19.3,29.6-34.2c-0.9,0.4-1.9,0.8-2.8,1.1
			c5.3,1.2,6.5,7.4,8.2,11.7c1.7,4.3,3.7,8.3,7.4,11.1c9.7,7.4,22.3,4.6,33.5,3.8c10.9-0.7,22.2,4.4,33,2c4-0.9,7.2-3.1,9.6-6.3
			c2.4-3.3,4.4-11,9.1-11.3c-0.8-0.8-1.7-1.7-2.5-2.5c-1.2,16.5,6.2,29.8,18.2,40.5c6.3,5.6,11.2,11.6,13.5,19.8
			c2.2,7.8,2.1,16.1-0.1,23.9c-4.4,15.6-17.3,27.5-31.7,34.1c-17.7,8.1-38,8.3-57,5.7c-3.1-0.4-4.5,4.4-1.3,4.8
			c28.1,3.8,59.2,1.3,80.5-19.6c17.3-17,22.8-46.3,6.2-65.8c-5.6-6.5-12.9-11-17.4-18.4c-4.6-7.5-6.4-16.1-5.8-24.9
			c0.1-1.3-1.2-2.6-2.5-2.5c-9.8,0.7-9.4,12.5-16.7,16.6c-5,2.8-11.7,1.4-17,0.5c-5.4-0.9-10.7-1.8-16.2-1.6
			c-11.4,0.4-28.6,5.5-36-6.7c-4.1-6.9-4.4-17.5-13.7-19.7c-1-0.2-2.4,0.1-2.8,1.1c-3.2,7.5-6.6,15.3-11.8,21.6
			c-6.1,7.3-14,9.9-22.6,13.2c-14.8,5.6-26.9,15.2-30.2,31.4c-1.6,7.9-1.5,16-1.3,24c0.2,7.4,0.8,15,3.8,21.8
			c6.7,14.9,24.9,19.3,39.3,23.1c21.1,5.5,43,7.4,64.7,5.9C277.2,170.7,277.2,165.7,274,165.9L274,165.9z"/>
	</g>
</g>
<g>
	<path class="st1" d="M246.9,116c2-8.6-2.4-17.7-8.9-23.6s-14.9-9.4-23-12.7c-3-1.2-6.5-2.5-9.5-1.1c-2.9,1.3-4.3,4.5-5.5,7.5
		c-1.9,4.9-3.9,10.1-3.1,15.3c1.2,8.3,8.9,14,16.6,17.4c6.5,2.9,13.6,4.9,20.7,4.7c3.4-0.1,7-0.7,9.7-2.7c2.8-2,4.5-5.7,3.4-8.9"/>
	<g>
		<path class="st1" d="M249.3,116.6c3.1-16-9.2-28-22.4-34.5c-5.9-2.9-15.3-8.7-22.1-6c-5.8,2.3-8.2,10.5-9.6,15.9
			c-4.4,16.2,8.6,26.3,22.5,31.1c10,3.5,35.7,5.9,32-12c-0.6-3.1-5.5-1.8-4.8,1.3c1.7,8-9.1,8.8-14.3,8.4
			c-5.9-0.4-11.9-2.3-17.3-4.9c-4.4-2.2-9-5-11.7-9.3c-3.4-5.3-2.5-11.1-0.5-16.7c0.8-2.2,1.6-4.5,2.8-6.5c2.3-3.8,6.2-3,9.7-1.7
			c5,1.9,9.9,4,14.5,6.6c9.6,5.4,18.7,15,16.4,27C243.9,118.5,248.7,119.8,249.3,116.6L249.3,116.6z"/>
	</g>
</g>
<g>
	<path class="st1" d="M287.7,117c-2-6.4,2-13.5,7.7-17.1c5.7-3.6,12.6-4.5,19.3-4.8c6.7-0.3,13.6-0.3,20-2.4
		c1.7-0.5,3.8-1.1,4.9,0.3c0.5,0.7,0.5,1.6,0.5,2.5c-0.1,9.5-0.9,20.3-8.4,26.1c-4.5,3.5-10.5,4.2-16.2,4.5c-4.5,0.2-8.9,0.2-13.4,0
		c-5-0.3-10.3-0.9-14.1-4.1c-3.8-3.2-5.1-9.8-1.3-13.1"/>
	<g>
		<path class="st1" d="M290.1,116.4c-3.5-14.6,15.2-18.3,25.5-18.8c5.4-0.3,10.9-0.3,16.2-1.5c2.8-0.6,5.1-2.5,5.7,0.8
			c0.4,2.2-0.2,5.1-0.4,7.3c-0.6,5.1-1.9,10.5-5.6,14.2c-4.2,4.1-10.4,4.8-16,5.1c-6.1,0.3-12.7,0.6-18.8-0.6
			c-5-0.9-13.9-6.5-8.3-12.4c2.2-2.3-1.3-5.9-3.5-3.5c-7.9,8.3,0.8,18.6,9.8,20.6c6.7,1.5,14,1.3,20.8,0.9
			c6.1-0.3,12.4-1.1,17.5-4.8c4.1-3,6.6-7.6,7.9-12.5c1.4-5.1,2.6-12.2,1.6-17.4c-1.1-5.4-6.3-4-10.2-3c-7.9,2.1-16.2,1.3-24.3,2.4
			c-12.3,1.6-26.1,10.2-22.7,24.5C286.1,120.8,290.9,119.5,290.1,116.4L290.1,116.4z"/>
	</g>
</g>
<g>
	<g>
		<path d="M224.7,80c-0.7,9.7-1.4,19.3-2.1,29c-0.2,3.2,4.8,3.2,5,0c0.7-9.7,1.4-19.3,2.1-29C229.9,76.8,224.9,76.8,224.7,80
			L224.7,80z"/>
	</g>
</g>
<g>
	<g>
		<path d="M320.5,86c0,9,0,18,0,27c0,3.2,5,3.2,5,0c0-9,0-18,0-27C325.5,82.8,320.5,82.8,320.5,86L320.5,86z"/>
	</g>
</g>
<g>
	<g>
		<path d="M282.2,129c-4.1-11.2,3.8-21.1,12.6-27.3c8.5-5.9,17.9-10.8,26.9-16c2.8-1.6,0.3-5.9-2.5-4.3c-16.4,9.6-51,23.8-41.8,48.9
			C278.4,133.3,283.3,132,282.2,129L282.2,129z"/>
	</g>
</g>
<g>
	<g>
		<path d="M201.3,77.3c1.9-4.2,10.7-5.5,14.7-3.4c3.3,1.8,1.5,4.6,2.7,7.3c0.8,1.8,2.2,2.7,3.8,3.6c11.4,6.2,21,13.1,28.5,23.8
			c1.8,2.6,6.2,0.1,4.3-2.5c-4.5-6.5-9.9-12.2-16.2-17.1c-3-2.3-6.1-4.3-9.3-6.1c-1.5-0.8-4.2-1.5-5.4-2.7c-1.8-1.8-0.8-2.9-1.1-4.9
			c-1.4-10.8-22.9-8.8-26.5-0.6C195.7,77.7,200.1,80.3,201.3,77.3L201.3,77.3z"/>
	</g>
</g>
<g>
	<g>
		<path d="M289.3,100.8c4.1,4,12.3-0.1,16.9-1.2c8.6-2.1,17.1-4.3,25.7-6.4c2.7-0.7,2.2-5.2-0.7-4.9c-9,1-18,2-26.9,3
			c-3.2,0.4-3.3,4.8,0,5c10.9,0.7,24.5-0.1,28.3-12.5c1-3.1-3.9-4.4-4.8-1.3c-3.1,10-15.2,9.4-23.5,8.8c0,1.7,0,3.3,0,5
			c9-1,18-2,26.9-3c-0.2-1.6-0.4-3.3-0.7-4.9c-6.4,1.6-12.7,3.2-19.1,4.8c-2.9,0.7-5.7,1.4-8.6,2.1c-1.4,0.4-9,3.1-10.1,2
			C290.5,95,287,98.5,289.3,100.8L289.3,100.8z"/>
	</g>
</g>
<g>
	<g>
		<path d="M198.7,76.4c6.8,2.2,13.5,4.5,20.3,6.7c4.3,1.4,10.5,4.2,13.9-0.5c7-9.9-17-10.6-21.3-11.3c-3.1-0.5-4.5,4.3-1.3,4.8
			c3.6,0.6,7.2,1.1,10.8,1.7c1.3,0.2,4.3,0.1,5.4,0.9c1.9,0.1,1.7,0.5-0.7,1.3c-0.9-0.3-1.8-0.5-2.7-0.8c-7.7-2.5-15.4-5.1-23.1-7.7
			C196.9,70.6,195.6,75.4,198.7,76.4L198.7,76.4z"/>
	</g>
</g>
<g>
	<g>
		<path d="M286.5,134.3c-2-8.7-3.3-17.4-4-26.3c-0.2-3.2-5.3-3.2-5,0c0.7,9.3,2.1,18.5,4.2,27.6
			C282.4,138.8,287.2,137.5,286.5,134.3L286.5,134.3z"/>
	</g>
</g>
<g>
	<g>
		<path d="M285.6,118c-1.6-12.8,11.8-17.9,21.7-21.1c11-3.5,22.1-6.1,33.5-8c3.2-0.5,1.8-5.3-1.3-4.8c-13.9,2.3-28.1,5.4-41.3,10.7
			c-9.6,3.9-19,11.7-17.6,23.2C281,121.1,286,121.2,285.6,118L285.6,118z"/>
	</g>
</g>
<g>
	<g>
		<path d="M294.2,134.4c-11.2-6.7-8-21.3-5.4-31.8c0.8-3.1-4-4.5-4.8-1.3c-3.3,12.9-5.7,29.4,7.7,37.4
			C294.4,140.4,296.9,136,294.2,134.4L294.2,134.4z"/>
	</g>
</g>
<g>
	<g>
		<path d="M275.6,118c6.3-11.4,16.1-20.3,28.2-25.2c2.9-1.2,1.7-6-1.3-4.8c-13.3,5.4-24.2,14.9-31.2,27.5
			C269.8,118.3,274.1,120.8,275.6,118L275.6,118z"/>
	</g>
</g>
<g>
	<g>
		<path d="M313.7,91.7c8.7-1.8,17.4-3,26.3-3.5c3.2-0.2,3.2-5.2,0-5c-9.3,0.5-18.5,1.7-27.6,3.6C309.2,87.5,310.6,92.3,313.7,91.7
			L313.7,91.7z"/>
	</g>
</g>
<g>
	<g>
		<path d="M319.1,95.9c4.5-0.4,8.9-1.2,13.3-2.5c2.3-0.7,4.6-1.5,6.9-2.5c0.8-0.3,1.5-0.7,2.3-1c1.3-1.1,2.7-1.2,4-0.3
			c-1.7,2.8,2.7,5.3,4.3,2.5c2.5-4.2-1.1-8.6-5.7-8.3c-3.6,0.3-7.1,2.7-10.5,3.8c-4.7,1.6-9.6,2.6-14.5,3.1
			C315.9,91.2,315.9,96.2,319.1,95.9L319.1,95.9z"/>
	</g>
</g>
<g>
	<g>
		<path class="st1" d="M260.5,126.8c-1.1,3.6,2.2,7.2,5.8,7.2c4.2,0,7-4.2,7.5-8c0.2-1.6-2.2-2.3-2.4-0.7c-0.3,2.3-1.4,4.8-3.6,5.8
			c-2.3,1-5.7-0.9-4.9-3.7C263.4,125.9,261,125.3,260.5,126.8L260.5,126.8z"/>
	</g>
</g>
<g>
	<g>
		<path class="st1" d="M269.3,114.8c-2-2.6-4-5.1-6-7.7c-0.2,0.7-0.4,1.4-0.6,2.1c3.8-1.4,7.7-1.3,11.4,0.2
			c-0.1-0.6-0.3-1.1-0.4-1.7c-1.1,2.1-2.8,3.4-5.1,4c-1.6,0.4-0.9,2.8,0.7,2.4c2.9-0.7,5.2-2.5,6.6-5.1c0.3-0.5,0.2-1.4-0.4-1.7
			c-4.3-1.8-8.9-2.1-13.4-0.5c-1,0.3-1.1,1.3-0.6,2.1c2,2.6,4,5.1,6,7.7C268.5,117.8,270.3,116,269.3,114.8L269.3,114.8z"/>
	</g>
</g>
<g>
	<g>
		<path class="st1" d="M268.9,111c-4.1,5.3-5.6,11.8-3.9,18.3c0.4,1.6,2.8,0.9,2.4-0.7c-1.4-5.6-0.3-11.3,3.3-15.9
			C271.7,111.5,269.9,109.7,268.9,111L268.9,111z"/>
	</g>
</g>
<g>
	<linearGradient id="SVGID_2_" gradientUnits="userSpaceOnUse" x1="46.3513" y1="128.9375" x2="416.5233" y2="128.9375">
		<stop  offset="0" style="stop-color:#EE2A7B"/>
		<stop  offset="1" style="stop-color:#2484C6;stop-opacity:0"/>
	</linearGradient>
	<path class="st2" d="M86.6,165.9c-6,0.5-11.9,1-17.9,1.6c-3.9-3.1-3.3-9.3-0.7-13.5c2.6-4.2,6.7-7.2,9.7-11.2
		c3.1-4.2,4.8-9.3,6.6-14.3c3.9-10.8,9-21.5,17.1-29.7s19.6-13.6,31-12.1c11.4,1.5,21.9,11.3,22,22.8c6.3-16.6,13.1-33.8,26.2-45.7
		c13.1-11.9,34.7-16.5,48.5-5.5c6.2,5,10.1,12.3,13.2,19.7c4.1,9.8,7.2,20,9.3,30.4c5.7-9.2,11.6-18.7,20-25.5
		c8.4-6.8,20.1-10.7,30.4-7.1c13,4.5,19.5,18.8,24.6,31.6c3.8,9.5,7.5,19,11.3,28.6c5.6-8.9,13.4-19,23.8-17.9
		c9.8,1,15.6,11.2,23.7,16.7c9.3,6.2,22.6,5.6,31.3-1.5c-6.5,11.9-20,19.6-33.6,19.3c-3.2-0.1-6.8-0.5-9.4,1.5
		c-2,1.5-2.9,4.1-3.8,6.5c-6.1,16-19.6,29.1-35.9,34.5c-16.3,5.4-34.9,3.2-49.4-6c-2.6-1.7-5.3-3.6-8.3-3.9c-4.2-0.5-8.1,2-11.7,4.2
		c-15.1,9.4-32.2,15.9-49.9,16.6c-17.7,0.7-36-4.8-49-16.9c-25.3,21.9-67.8,20.1-91.1-3.9c-10,7.8-26.8-1.2-28-13.8
		s10.4-24.1,23-25.4c1.4,7.6,7.8,14.1,15.3,15.6"/>
</g>
<g>
	<g>
		<linearGradient id="SVGID_3_" gradientUnits="userSpaceOnUse" x1="113.7743" y1="49.7944" x2="142.2468" y2="49.7944">
			<stop  offset="0" style="stop-color:#FFF33B"/>
			<stop  offset="5.948725e-02" style="stop-color:#FFE029"/>
			<stop  offset="0.1303" style="stop-color:#FFD218"/>
			<stop  offset="0.2032" style="stop-color:#FEC90F"/>
			<stop  offset="0.2809" style="stop-color:#FDC70C"/>
			<stop  offset="0.6685" style="stop-color:#F3903F"/>
			<stop  offset="0.8876" style="stop-color:#ED683C"/>
			<stop  offset="1" style="stop-color:#E93E3A"/>
		</linearGradient>
		<path class="st3" d="M134,56.8c-1-2.7-2-5.3-3-8c-0.5-1.3-1-2.7-1.5-4c-0.3-0.7-0.5-1.3-0.8-2c-0.6-2.3-2.1-1.4-4.6,2.6
			c0.4,0.7,2.4,1.7,3,2.2c1.1,0.8,2.2,1.7,3.3,2.5c2.2,1.7,4.4,3.4,6.7,5.1c0.4-3,0.8-6.1,1.2-9.1c-6.4,1-12.8,1.9-19.2,2.9
			c1.3,3,2.6,6.1,3.9,9.1c6.7-3.2,12.7-7.3,18.2-12.2c-2.8-1.2-5.7-2.4-8.5-3.5c-0.6,4.9-2.7,9.4-5.9,13.1
			c-4.2,4.8,2.8,11.9,7.1,7.1c5.1-5.9,7.9-12.5,8.8-20.2c0.6-4.7-5.7-6.1-8.5-3.5c-4.9,4.4-10.3,7.8-16.2,10.6
			c-2.2,1.1-2.9,4.1-2,6.2c1,2.5,3.4,3.3,5.9,2.9c6.4-1,12.8-1.9,19.2-2.9c4.8-0.7,4.1-6.9,1.2-9.1c-3.5-2.7-7-5.3-10.5-8
			c-2.9-2.2-6.6-4.2-10.2-2.2c-3.7,2.1-3.5,6.3-2.2,9.8c1.6,4.5,3.3,8.9,5,13.4C126.6,65.4,136.3,62.8,134,56.8L134,56.8z"/>
	</g>
</g>
<g>
	<g>
		<linearGradient id="SVGID_4_" gradientUnits="userSpaceOnUse" x1="366.5771" y1="196.5494" x2="395.0497" y2="196.5494">
			<stop  offset="0" style="stop-color:#FFF33B"/>
			<stop  offset="5.948725e-02" style="stop-color:#FFE029"/>
			<stop  offset="0.1303" style="stop-color:#FFD218"/>
			<stop  offset="0.2032" style="stop-color:#FEC90F"/>
			<stop  offset="0.2809" style="stop-color:#FDC70C"/>
			<stop  offset="0.6685" style="stop-color:#F3903F"/>
			<stop  offset="0.8876" style="stop-color:#ED683C"/>
			<stop  offset="1" style="stop-color:#E93E3A"/>
		</linearGradient>
		<path class="st4" d="M386.8,203.5c-1-2.7-2-5.3-3-8c-0.5-1.3-1-2.7-1.5-4c-0.3-0.7-0.5-1.3-0.8-2c-0.6-2.3-2.1-1.4-4.6,2.6
			c0.4,0.7,2.4,1.7,3,2.2c1.1,0.8,2.2,1.7,3.3,2.5c2.2,1.7,4.4,3.4,6.7,5.1c0.4-3,0.8-6.1,1.2-9.1c-6.4,1-12.8,1.9-19.2,2.9
			c1.3,3,2.6,6.1,3.9,9.1c6.7-3.2,12.7-7.3,18.2-12.2c-2.8-1.2-5.7-2.4-8.5-3.5c-0.6,4.9-2.7,9.4-5.9,13.1
			c-4.2,4.8,2.8,11.9,7.1,7.1c5.1-5.9,7.9-12.5,8.8-20.2c0.6-4.7-5.7-6.1-8.5-3.5c-4.9,4.4-10.3,7.8-16.2,10.6
			c-2.2,1.1-2.9,4.1-2,6.2c1,2.5,3.4,3.3,5.9,2.9c6.4-1,12.8-1.9,19.2-2.9c4.8-0.7,4.1-6.9,1.2-9.1c-3.5-2.7-7-5.3-10.5-8
			c-2.9-2.2-6.6-4.2-10.2-2.2c-3.7,2.1-3.5,6.3-2.2,9.8c1.6,4.5,3.3,8.9,5,13.4C379.4,212.2,389.1,209.6,386.8,203.5L386.8,203.5z"
			/>
	</g>
</g>
<g>
	<g>
		<linearGradient id="SVGID_5_" gradientUnits="userSpaceOnUse" x1="356.9893" y1="40.5629" x2="385.4619" y2="40.5629">
			<stop  offset="0" style="stop-color:#FFF33B"/>
			<stop  offset="5.948725e-02" style="stop-color:#FFE029"/>
			<stop  offset="0.1303" style="stop-color:#FFD218"/>
			<stop  offset="0.2032" style="stop-color:#FEC90F"/>
			<stop  offset="0.2809" style="stop-color:#FDC70C"/>
			<stop  offset="0.6685" style="stop-color:#F3903F"/>
			<stop  offset="0.8876" style="stop-color:#ED683C"/>
			<stop  offset="1" style="stop-color:#E93E3A"/>
		</linearGradient>
		<path class="st5" d="M377.2,47.6c-1-2.7-2-5.3-3-8c-0.5-1.3-1-2.7-1.5-4c-0.3-0.7-0.5-1.3-0.8-2c-0.6-2.3-2.1-1.4-4.6,2.6
			c0.4,0.7,2.4,1.7,3,2.2c1.1,0.8,2.2,1.7,3.3,2.5c2.2,1.7,4.4,3.4,6.7,5.1c0.4-3,0.8-6.1,1.2-9.1c-6.4,1-12.8,1.9-19.2,2.9
			c1.3,3,2.6,6.1,3.9,9.1c6.7-3.2,12.7-7.3,18.2-12.2c-2.8-1.2-5.7-2.4-8.5-3.5c-0.6,4.9-2.7,9.4-5.9,13.1
			c-4.2,4.8,2.8,11.9,7.1,7.1c5.1-5.9,7.9-12.5,8.8-20.2c0.6-4.7-5.7-6.1-8.5-3.5c-4.9,4.4-10.3,7.8-16.2,10.6
			c-2.2,1.1-2.9,4.1-2,6.2c1,2.5,3.4,3.3,5.9,2.9c6.4-1,12.8-1.9,19.2-2.9c4.8-0.7,4.1-6.9,1.2-9.1c-3.5-2.7-7-5.3-10.5-8
			c-2.9-2.2-6.6-4.2-10.2-2.2c-3.7,2.1-3.5,6.3-2.2,9.8c1.6,4.5,3.3,8.9,5,13.4C369.8,56.2,379.5,53.6,377.2,47.6L377.2,47.6z"/>
	</g>
</g>
<g>
	<g>
		<linearGradient id="SVGID_6_" gradientUnits="userSpaceOnUse" x1="20.3622" y1="132.8613" x2="48.8348" y2="132.8613">
			<stop  offset="0" style="stop-color:#FFF33B"/>
			<stop  offset="5.948725e-02" style="stop-color:#FFE029"/>
			<stop  offset="0.1303" style="stop-color:#FFD218"/>
			<stop  offset="0.2032" style="stop-color:#FEC90F"/>
			<stop  offset="0.2809" style="stop-color:#FDC70C"/>
			<stop  offset="0.6685" style="stop-color:#F3903F"/>
			<stop  offset="0.8876" style="stop-color:#ED683C"/>
			<stop  offset="1" style="stop-color:#E93E3A"/>
		</linearGradient>
		<path class="st6" d="M40.6,139.9c-1-2.7-2-5.3-3-8c-0.5-1.3-1-2.7-1.5-4c-0.3-0.7-0.5-1.3-0.8-2c-0.6-2.3-2.1-1.4-4.6,2.6
			c0.4,0.7,2.4,1.7,3,2.2c1.1,0.8,2.2,1.7,3.3,2.5c2.2,1.7,4.4,3.4,6.7,5.1c0.4-3,0.8-6.1,1.2-9.1c-6.4,1-12.8,1.9-19.2,2.9
			c1.3,3,2.6,6.1,3.9,9.1c6.7-3.2,12.7-7.3,18.2-12.2c-2.8-1.2-5.7-2.4-8.5-3.5c-0.6,4.9-2.7,9.4-5.9,13.1
			c-4.2,4.8,2.8,11.9,7.1,7.1c5.1-5.9,7.9-12.5,8.8-20.2c0.6-4.7-5.7-6.1-8.5-3.5c-4.9,4.4-10.3,7.8-16.2,10.6
			c-2.2,1.1-2.9,4.1-2,6.2c1,2.5,3.4,3.3,5.9,2.9c6.4-1,12.8-1.9,19.2-2.9c4.8-0.7,4.1-6.9,1.2-9.1c-3.5-2.7-7-5.3-10.5-8
			c-2.9-2.2-6.6-4.2-10.2-2.2c-3.7,2.1-3.5,6.3-2.2,9.8c1.6,4.5,3.3,8.9,5,13.4C33.2,148.5,42.9,145.9,40.6,139.9L40.6,139.9z"/>
	</g>
</g>
<g>
	<g>
		<linearGradient id="SVGID_7_" gradientUnits="userSpaceOnUse" x1="20.3622" y1="33.5586" x2="48.8348" y2="33.5586">
			<stop  offset="0" style="stop-color:#FFF33B"/>
			<stop  offset="5.948725e-02" style="stop-color:#FFE029"/>
			<stop  offset="0.1303" style="stop-color:#FFD218"/>
			<stop  offset="0.2032" style="stop-color:#FEC90F"/>
			<stop  offset="0.2809" style="stop-color:#FDC70C"/>
			<stop  offset="0.6685" style="stop-color:#F3903F"/>
			<stop  offset="0.8876" style="stop-color:#ED683C"/>
			<stop  offset="1" style="stop-color:#E93E3A"/>
		</linearGradient>
		<path class="st7" d="M40.6,40.5c-1-2.7-2-5.3-3-8c-0.5-1.3-1-2.7-1.5-4c-0.3-0.7-0.5-1.3-0.8-2c-0.6-2.3-2.1-1.4-4.6,2.6
			c0.4,0.7,2.4,1.7,3,2.2c1.1,0.8,2.2,1.7,3.3,2.5c2.2,1.7,4.4,3.4,6.7,5.1c0.4-3,0.8-6.1,1.2-9.1c-6.4,1-12.8,1.9-19.2,2.9
			c1.3,3,2.6,6.1,3.9,9.1c6.7-3.2,12.7-7.3,18.2-12.2c-2.8-1.2-5.7-2.4-8.5-3.5c-0.6,4.9-2.7,9.4-5.9,13.1
			c-4.2,4.8,2.8,11.9,7.1,7.1c5.1-5.9,7.9-12.5,8.8-20.2c0.6-4.7-5.7-6.1-8.5-3.5c-4.9,4.4-10.3,7.8-16.2,10.6
			c-2.2,1.1-2.9,4.1-2,6.2c1,2.5,3.4,3.3,5.9,2.9c6.4-1,12.8-1.9,19.2-2.9c4.8-0.7,4.1-6.9,1.2-9.1c-3.5-2.7-7-5.3-10.5-8
			c-2.9-2.2-6.6-4.2-10.2-2.2c-3.7,2.1-3.5,6.3-2.2,9.8c1.6,4.5,3.3,8.9,5,13.4C33.2,49.2,42.9,46.6,40.6,40.5L40.6,40.5z"/>
	</g>
</g>
</svg>
