<?xml version="1.0" encoding="utf-8"?>
<!-- Generator: Adobe Illustrator 22.1.0, SVG Export Plug-In . SVG Version: 6.00 Build 0)  -->
<svg version="1.1" id="Слой_1" xmlns="http://www.w3.org/2000/svg" xmlns:xlink="http://www.w3.org/1999/xlink" x="0px" y="0px"
	 viewBox="0 0 426.2 149.2" style="enable-background:new 0 0 426.2 149.2;" xml:space="preserve">
<style type="text/css">
	.st0{fill:#010101;stroke:#010101;stroke-miterlimit:10;}
	.st1{fill:#FFFFFF;}
</style>
<g>
	<path class="st0" d="M699.3,61.5c-25.5,9.3-48.9,24.4-67.9,43.7c-7.6,7.7-14.7,16.2-24,21.7s-21.9,7.3-30.8,1.1
		c-15.3-10.7-13.6-39.4-31.7-44.2c-4.5-1.2-9.4-0.4-13.8,1.1c-19.1,6.5-31.8,24.3-48.4,35.9c-16.6,11.5-44.7,13.2-52.5-5.5
		c-4.7-11.2-0.9-27.6-11.6-33.2c-7.7-4.1-16.9,1.1-24,6.1c-22.2,15.7-44.5,31.3-66.7,47c-8.3,5.9-19.8,11.9-28,5.7
		c-13.8-10.4,1.4-40.6-14.8-46.4c-3.5-1.3-7.4-0.6-11,0.2c-20.4,4.6-39.8,13.6-56.6,26.2c-11.2,8.4-21.5,18.5-34.7,23.2
		c-13.1,4.6-30.7,1.2-36.3-11.6c-5.6-12.7,2.2-30.3-7.7-40.1c-6.8-6.7-18.3-5.3-26.4-0.4c-11,6.6-18.2,17.7-27.6,26.3
		c-9.5,8.5-24,14.2-34.8,7.4c-15.2-9.7-11.6-36.8-27.8-44.9c-13.1-6.4-27.9,5.2-36,17.4s-15.3,27.1-29.3,31.1
		c-2.6,0.7-5.6,1.1-7.9-0.3c-2.5-1.4-3.8-4.2-4.5-7c-3.7-12.7-2.8-29.7-15-34.9c-9.3-4.1-19.8,2.4-26.1,10.3s-10.6,17.5-18.4,23.8
		c-7.8,6.2-21.7,6.9-26.2-2c-2.9-5.6-1-12.7-3.8-18.3c-4.7-9.2-19.2-8-26.8-0.9c-7.6,7-11,17.5-16.4,26.2s-15.5,16.7-25.4,13.7
		c-18.2-34-16.5-74.6-14.3-113c1.2-20.8,3-43.2,16.6-59c14.1-16.3,37.1-21.2,58.5-23.7C-53-67.9,47.7-49.3,148.2-44.3
		c178.5,8.9,358.5-25.5,535.5-1.1c11.7,1.6,23.8,3.6,34.2,9.2c19.2,10.4,30.5,34,26.6,55.5C740.5,41,721.7,59,700,62"/>
</g>
<g>
	<path class="st1" d="M398.4,17.8c-1,2.9-3.4,5.3-6.3,6.5c2,2.2,4,4.5,5.9,6.7c0.2,0.3,0.5,0.5,0.8,0.5c0.4,0,0.6-0.4,0.7-0.8
		c1.4-2.8,3.6-5.3,6.2-7c-3.2-0.5-6-3-6.8-6.1"/>
</g>
<g>
	<path class="st1" d="M350.3,74.7c-1,2.9-3.4,5.3-6.3,6.5c2,2.2,4,4.5,5.9,6.7c0.2,0.3,0.5,0.5,0.8,0.5c0.4,0,0.6-0.4,0.7-0.8
		c1.4-2.8,3.6-5.3,6.2-7c-3.2-0.5-6-3-6.8-6.1"/>
</g>
<g>
	<path class="st1" d="M303.1,24.7c-1,2.9-3.4,5.3-6.3,6.5c2,2.2,4,4.5,5.9,6.7c0.2,0.3,0.5,0.5,0.8,0.5c0.4,0,0.6-0.4,0.7-0.8
		c1.4-2.8,3.6-5.3,6.2-7c-3.2-0.5-6-3-6.8-6.1"/>
</g>
<g>
	<path class="st1" d="M196.1,10.9c-1,2.9-3.4,5.3-6.3,6.5c2,2.2,4,4.5,5.9,6.7c0.2,0.3,0.5,0.5,0.8,0.5c0.4,0,0.6-0.4,0.7-0.8
		c1.4-2.8,3.6-5.3,6.2-7c-3.2-0.5-6-3-6.8-6.1"/>
</g>
<g>
	<path class="st1" d="M230.7,67.8c-1,2.9-3.4,5.3-6.3,6.5c2,2.2,4,4.5,5.9,6.7c0.2,0.3,0.5,0.5,0.8,0.5c0.4,0,0.6-0.4,0.7-0.8
		c1.4-2.8,3.6-5.3,6.2-7c-3.2-0.5-6-3-6.8-6.1"/>
</g>
<g>
	<path class="st1" d="M166.3,107.8c-1,2.9-3.4,5.3-6.3,6.5c2,2.2,4,4.5,5.9,6.7c0.2,0.3,0.5,0.5,0.8,0.5c0.4,0,0.6-0.4,0.7-0.8
		c1.4-2.8,3.6-5.3,6.2-7c-3.2-0.5-6-3-6.8-6.1"/>
</g>
<g>
	<path class="st1" d="M68.2,81.6c-1,2.9-3.4,5.3-6.3,6.5c2,2.2,4,4.5,5.9,6.7c0.2,0.3,0.5,0.5,0.8,0.5c0.4,0,0.6-0.4,0.7-0.8
		c1.4-2.8,3.6-5.3,6.2-7c-3.2-0.5-6-3-6.8-6.1"/>
</g>
<g>
	<path class="st1" d="M129.7,43.1c-1,2.9-3.4,5.3-6.3,6.5c2,2.2,4,4.5,5.9,6.7c0.2,0.3,0.5,0.5,0.8,0.5c0.4,0,0.6-0.4,0.7-0.8
		c1.4-2.8,3.6-5.3,6.2-7c-3.2-0.5-6-3-6.8-6.1"/>
</g>
<g>
	<path class="st1" d="M18.3,31.5c-1,2.9-3.4,5.3-6.3,6.5c2,2.2,4,4.5,5.9,6.7c0.2,0.3,0.5,0.5,0.8,0.5c0.4,0,0.6-0.4,0.7-0.8
		c1.4-2.8,3.6-5.3,6.2-7c-3.2-0.5-6-3-6.8-6.1"/>
</g>
<g>
	<path class="st1" d="M68.2,4c-1,2.9-3.4,5.3-6.3,6.5c2,2.2,4,4.5,5.9,6.7c0.2,0.3,0.5,0.5,0.8,0.5c0.4,0,0.6-0.4,0.7-0.8
		c1.4-2.8,3.6-5.3,6.2-7c-3.2-0.5-6-3-6.8-6.1"/>
</g>
</svg>
