<?xml version="1.0" encoding="utf-8"?>
<!-- Generator: Adobe Illustrator 22.1.0, SVG Export Plug-In . SVG Version: 6.00 Build 0)  -->
<svg version="1.1" id="Слой_1" xmlns="http://www.w3.org/2000/svg" xmlns:xlink="http://www.w3.org/1999/xlink" x="0px" y="0px"
	 viewBox="0 0 190.3 151.1" style="enable-background:new 0 0 190.3 151.1;" xml:space="preserve">
<style type="text/css">
	.st0{fill:url(#SVGID_1_);}
	.st1{fill:url(#SVGID_2_);stroke:url(#SVGID_3_);stroke-miterlimit:10;}
	.st2{fill:url(#SVGID_4_);stroke:url(#SVGID_5_);stroke-miterlimit:10;}
	.st3{fill:#FFFFFF;stroke:#FFFFFF;stroke-miterlimit:10;}
	.st4{fill:#FFFFFF;}
	.st5{fill:url(#SVGID_6_);}
	.st6{fill:url(#SVGID_7_);}
</style>
<g id="Слой_1_1_">
	<g>
		
			<linearGradient id="SVGID_1_" gradientUnits="userSpaceOnUse" x1="12.1341" y1="589.098" x2="190.2504" y2="589.098" gradientTransform="matrix(1 0 0 -1 0 680.1102)">
			<stop  offset="0" style="stop-color:#EC258B"/>
			<stop  offset="1" style="stop-color:#2584C6;stop-opacity:0"/>
		</linearGradient>
		<path class="st0" d="M19.5,130c-5.7-13.8-8.2-28.9-7.1-43.8c0.3-3.7,0.8-7.5,3-10.5s6.4-4.8,9.7-3.2c2.6,1.3,4.5,4.6,7.4,4.3
			c2.2-0.2,3.5-2.4,4.5-4.4c4.1-8.5,7-18,14.1-24.2s20.3-6.6,24.2,1.9c2.3,5.1,1,12.2,5.5,15.5c3.2,2.3,7.8,1.2,11.1-1
			c3.3-2.2,5.8-5.3,9.1-7.5c10.5-7.1,27.3-0.4,30.1,11.9c0.4,1.8,0.6,3.7,1.9,5.1c0.9,1,2.3,1.5,3.6,1.8c7.4,1.7,15.6-0.2,21.5-5.2
			c2.8-2.4,5.6-5.6,9.3-5.2c1.7,0.2,3.1,1.1,4.5,2c9.6,6,20.5,15.1,18,26.2c-3.8-3.6-10.4,0.7-11.8,5.8c-1.4,5.1,0.1,10.6-1,15.8
			c-1.9,9.5-13.1,15.8-22.2,12.6c-7.5-2.7-15.7-10.3-21.7-5.1c-2.8,2.5-3.1,6.8-5,10c-3.5,5.9-12,7-18.2,4.3s-10.9-8.1-15.2-13.4
			c-2.6-3.1-6.3-6.4-10-4.9c-1.6,0.7-2.7,2.1-3.7,3.5c-6.4,8.5-15.6,17.3-26.1,15.2c-7.6-1.5-14.1-8.8-21.8-7.4
			c-5.7,1.1-11.9,6.7-16.2,2.8"/>
	</g>
</g>
<g>
	
		<linearGradient id="SVGID_2_" gradientUnits="userSpaceOnUse" x1="27.6221" y1="605.0514" x2="148.5505" y2="605.0514" gradientTransform="matrix(1 0 0 -1 0 680.1102)">
		<stop  offset="0" style="stop-color:#6759A6"/>
		<stop  offset="6.089846e-02" style="stop-color:#675EA7"/>
		<stop  offset="0.1622" style="stop-color:#646CAC"/>
		<stop  offset="0.2914" style="stop-color:#5E82B4"/>
		<stop  offset="0.4418" style="stop-color:#53A1C0"/>
		<stop  offset="0.5674" style="stop-color:#43BEC9"/>
		<stop  offset="0.8652" style="stop-color:#C24C9C"/>
		<stop  offset="0.9944" style="stop-color:#EE2B49"/>
	</linearGradient>
	<linearGradient id="SVGID_3_" gradientUnits="userSpaceOnUse" x1="27.1221" y1="75.0589" x2="149.0505" y2="75.0589">
		<stop  offset="0" style="stop-color:#6759A6"/>
		<stop  offset="6.089846e-02" style="stop-color:#675EA7"/>
		<stop  offset="0.1622" style="stop-color:#646CAC"/>
		<stop  offset="0.2914" style="stop-color:#5E82B4"/>
		<stop  offset="0.4418" style="stop-color:#53A1C0"/>
		<stop  offset="0.5674" style="stop-color:#43BEC9"/>
		<stop  offset="0.8652" style="stop-color:#C24C9C"/>
		<stop  offset="0.9944" style="stop-color:#EE2B49"/>
	</linearGradient>
	<path class="st1" d="M123.6,136.7c-9.6,5.3-21.8,6.6-31.7,1.9s-16.7-16.1-14.7-26.9c-5.7,2.7-11.5,5.4-17.8,5.8s-13.1-1.9-16.2-7.4
		c-3.1-5.4-0.7-13.8,5.4-15.3c3.4-0.8,7.8,0.3,9.9-2.5c1-1.3,1.1-3,1.2-4.6c0.4-7.3,0.7-14.6,1.1-21.9c-6.2,4.8-15.2,5.8-22.2,2.3
		S27,56.6,27.7,48.8c0.5-5.3,4.7-10.9,9.9-10.3c-3.7,0-6.4-4.1-6.1-7.8s2.8-6.8,5.7-9.2c5.7-4.8,13.2-7.6,20.7-7.6
		c3.9,0,7.8,0.7,11.6,0.1c3.7-0.6,7-2.3,10.6-3.4c12.2-4,25.5-1,38,2c7.9,1.9,16.1,3.9,22.4,9s10.2,14.2,6.8,21.6
		c-2.8,6-9.2,9.1-15.3,11.6c-11.8,4.9-24,9-36.3,12.4c-4.8,1.3-9.8,2.6-13.4,6.1c-3.6,3.4-4.8,9.8-1.3,13.3c4.2,4.1,12.4,2.1,15.6,7
		c3.3,5.1-2.3,11.2-7.3,14.6c1.9,4.7,4,9.6,7.8,13s10,4.7,14,1.5c3-2.4,4-6.4,5.7-9.8s5.4-6.7,9-5.3c2.3,0.9,3.5,3.3,4.4,5.6
		c1.8,4.6,3.1,9.6,2.1,14.5c-1,4.9-4.8,9.4-9.7,9.9"/>
	<g>
		
			<linearGradient id="SVGID_4_" gradientUnits="userSpaceOnUse" x1="27.063" y1="605.0103" x2="148.9738" y2="605.0103" gradientTransform="matrix(1 0 0 -1 0 680.1102)">
			<stop  offset="0" style="stop-color:#6759A6"/>
			<stop  offset="6.089846e-02" style="stop-color:#675EA7"/>
			<stop  offset="0.1622" style="stop-color:#646CAC"/>
			<stop  offset="0.2914" style="stop-color:#5E82B4"/>
			<stop  offset="0.4418" style="stop-color:#53A1C0"/>
			<stop  offset="0.5674" style="stop-color:#43BEC9"/>
			<stop  offset="0.8652" style="stop-color:#C24C9C"/>
			<stop  offset="0.9944" style="stop-color:#EE2B49"/>
		</linearGradient>
		<linearGradient id="SVGID_5_" gradientUnits="userSpaceOnUse" x1="24.9329" y1="75.1" x2="151.4172" y2="75.1">
			<stop  offset="0" style="stop-color:#6759A6"/>
			<stop  offset="6.089846e-02" style="stop-color:#675EA7"/>
			<stop  offset="0.1622" style="stop-color:#646CAC"/>
			<stop  offset="0.2914" style="stop-color:#5E82B4"/>
			<stop  offset="0.4418" style="stop-color:#53A1C0"/>
			<stop  offset="0.5674" style="stop-color:#43BEC9"/>
			<stop  offset="0.8652" style="stop-color:#C24C9C"/>
			<stop  offset="0.9944" style="stop-color:#EE2B49"/>
		</linearGradient>
		<path class="st2" d="M122.3,134.6c-9.3,4.9-20.9,6.4-30.5,1.2c-8.3-4.5-13.7-14-12.3-23.5c0.3-2.2-1.6-3.8-3.7-2.8
			c-7.3,3.4-15.7,7.4-23.9,4.6c-6.3-2.2-12.2-12.8-3.5-16.5c4.8-2,11,0.5,13.1-6c1.2-3.6,0.7-8.1,0.9-11.8c0.2-4.7,0.4-9.3,0.7-14
			c0.1-1.8-2.2-3.2-3.8-2.2c-7.2,5.1-17.3,5.8-24-0.7c-3-2.9-5.1-7-5.4-11.2c-0.1-4.6,2.1-10.8,7.7-10.6c3.3,0.1,3.1-4.6,0-5
			c-4.3-0.6-3.9-5.9-2.4-8.5c1.1-2,3-3.7,4.8-5.1c3.9-3,8.5-4.9,13.4-5.7c4.7-0.7,9.4,0.2,14.1-0.1c3.9-0.2,7.3-1.6,10.9-2.9
			c9.8-3.6,19.8-2.9,29.9-0.8c8.5,1.7,17.7,3.4,25.4,7.4c7.6,3.9,15.3,12.9,11.1,21.9c-3.7,8-15.1,10.9-22.6,13.7
			c-9,3.4-18.1,6.3-27.4,8.9c-6.1,1.7-13.1,3.6-16.6,9.4c-3.4,5.6-2.5,13,3.7,16.1c2.9,1.5,6.2,1.4,9.3,2.6c7.8,3,0.5,10.3-3.4,13.2
			c-0.8,0.6-1.6,1.7-1.1,2.8c2.3,5.6,4.8,11.8,10,15.4c4.6,3.1,11.1,4,15.7,0.5c2.4-1.8,3.7-4.5,4.9-7.2c1.7-3.8,6.4-11.4,10-4.4
			c3.6,7.1,5,20.3-5.4,22.2c-3.2,0.6-1.8,5.4,1.3,4.8c6.8-1.2,11.2-7.3,11.8-14c0.5-6.1-1.5-17.1-7.5-20.4
			c-6.9-3.7-12.1,3.8-14.4,9.2c-2.4,5.4-6.6,9-12.5,5.7c-4.8-2.6-7-8.4-8.9-13.1c-0.4,0.9-0.8,1.9-1.1,2.8c5.4-3.9,13-11.5,7.8-18.6
			c-1.9-2.6-4.9-3.6-7.9-4.3c-2-0.5-4.6-0.6-6.3-1.7c-3.2-2.1-3.3-5.9-1.4-9c3.1-5,10.2-6.1,15.4-7.6c6.2-1.7,12.3-3.6,18.3-5.7
			c9.2-3.2,20.2-6.2,27.8-12.5c6.4-5.3,8.3-13.5,5.1-21.2c-3.6-8.8-11.8-13.8-20.5-16.7c-10.4-3.5-21.8-6.1-32.8-6.7
			C90.8,6,85.3,6.4,80.2,7.9c-2.3,0.7-4.6,1.7-6.9,2.5c-3.9,1.3-7.5,1.4-11.6,1.2c-10.7-0.5-22,2.4-29.1,11
			c-5.3,6.4-4.7,17.2,5,18.5c0-1.7,0-3.3,0-5c-13.8-0.5-14.5,18-8.8,26.5C36.2,73.8,51.4,75.5,62,68c-1.3-0.7-2.5-1.4-3.8-2.2
			c-0.3,6-0.6,12-0.9,17.9c-0.2,3.4-0.5,7.9-4.7,8.2C50.8,92,49,92,47.3,92.6c-6,1.8-8.9,8.7-7.9,14.5c1.2,6.8,7.4,11.2,13.8,12.4
			c8.8,1.7,17.3-2.1,25.1-5.8c-1.2-0.9-2.4-1.9-3.7-2.8c-1.7,11.2,3.7,22.4,13.4,28.4c11.2,7,25.5,5.5,36.7-0.5
			C127.7,137.4,125.2,133.1,122.3,134.6L122.3,134.6z"/>
	</g>
</g>
<g>
	<g>
		<path class="st3" d="M67.1,59.6c3.2,0,3.2-5,0-5C63.9,54.6,63.8,59.6,67.1,59.6L67.1,59.6z"/>
	</g>
</g>
<g>
	<g>
		<path class="st4" d="M41.7,48.5c3.2,0,3.2-5,0-5S38.5,48.5,41.7,48.5L41.7,48.5z"/>
	</g>
</g>
<g>
	<g>
		<path class="st4" d="M51.2,31.8c3.2,0,3.2-5,0-5C48,26.8,48,31.8,51.2,31.8L51.2,31.8z"/>
	</g>
</g>
<g>
	<g>
		<path class="st4" d="M125.8,46.1c3.2,0,3.2-5,0-5C122.6,41.1,122.6,46.1,125.8,46.1L125.8,46.1z"/>
	</g>
</g>
<g>
	<g>
		<path class="st4" d="M104.4,42.9c3.2,0,3.2-5,0-5S101.1,42.9,104.4,42.9L104.4,42.9z"/>
	</g>
</g>
<g>
	<g>
		<path class="st4" d="M97.2,59.6c3.2,0,3.2-5,0-5C94,54.6,94,59.6,97.2,59.6L97.2,59.6z"/>
	</g>
</g>
<g>
	<g>
		<path class="st4" d="M91.7,36.6c3.2,0,3.2-5,0-5C88.5,31.6,88.5,36.6,91.7,36.6L91.7,36.6z"/>
	</g>
</g>
<g>
	<g>
		<path class="st4" d="M103.6,23.1c3.2,0,3.2-5,0-5C100.4,18.1,100.4,23.1,103.6,23.1L103.6,23.1z"/>
	</g>
</g>
<g>
	<g>
		<path class="st4" d="M134.5,27.1c3.2,0,3.2-5,0-5S131.3,27.1,134.5,27.1L134.5,27.1z"/>
	</g>
</g>
<g>
	<g>
		<path class="st4" d="M71,42.1c3.2,0,3.2-5,0-5S67.8,42.1,71,42.1L71,42.1z"/>
	</g>
</g>
<g>
	<g>
		<path class="st4" d="M73.4,26.3c3.2,0,3.2-5,0-5S70.2,26.3,73.4,26.3L73.4,26.3z"/>
	</g>
</g>
<g>
	<g>
		<linearGradient id="SVGID_6_" gradientUnits="userSpaceOnUse" x1="38.6772" y1="100.6411" x2="101.8524" y2="100.6411">
			<stop  offset="0" style="stop-color:#6759A6"/>
			<stop  offset="6.089846e-02" style="stop-color:#675EA7"/>
			<stop  offset="0.1622" style="stop-color:#646CAC"/>
			<stop  offset="0.2914" style="stop-color:#5E82B4"/>
			<stop  offset="0.4418" style="stop-color:#53A1C0"/>
			<stop  offset="0.5674" style="stop-color:#43BEC9"/>
			<stop  offset="0.8652" style="stop-color:#C24C9C"/>
			<stop  offset="0.9944" style="stop-color:#EE2B49"/>
		</linearGradient>
		<path class="st5" d="M58.5,92c-0.3-5.5-9.4-5.9-13.1-4c-4,2.1-5.4,7.7-1.9,10.8c0.6-1.4,1.2-2.8,1.8-4.3c-4.9,0.4-9.3,4.2-8.5,9.5
			c0.8,5.2,6.2,7.7,11,6.5c-1-1-2.1-2.1-3.1-3.1c-1.4,3.3-2.3,6.6-2.9,10.1c-0.2,1.2,0.2,2.1,1.1,2.8c4.9,3.3,10.8,1.9,14.2-2.7
			c-1.3,0.2-2.6,0.3-3.9,0.5c6.7,7.5,17.9,3,18.4-6.8c-1.6,0.2-3.3,0.4-4.9,0.7c1.1,4,4.8,6.2,8.9,5.9c5.2-0.4,8.4-4.9,11-8.9
			c-1.6-0.4-3.1-0.8-4.7-1.3c-0.5,4.6,4.4,7.7,8.6,6.5c5.6-1.5,6.2-8.3,5-13c-1.5,0.6-3,1.3-4.6,1.9c3.6,6.5,11.5,2.5,12.8-3.5
			c1.2-5.7-2.8-11.8-9-10.8c0.9,1.2,1.9,2.4,2.8,3.7c5.1-8.3-5.2-17.1-13.3-12.9c-3,1.5-4,5-1.9,7.8c3,3.9,7.8,2.3,11.3,0.2
			c1.5-0.9,1.5-2.7,0.5-3.9c-3.4-4-8.8-4.8-13.2-2c-2.7,1.7-0.2,6.1,2.5,4.3c2.6-1.7,5.2-1.2,7.2,1.2c0.2-1.3,0.3-2.6,0.5-3.9
			c-1.6,0.9-6.2,0.1-2.4,0.4c3.2,0.2,6.7,2.7,4.5,6.3c-1.2,2,0.8,4,2.8,3.7c1.4,0.1,2.3,0.9,2.6,2.4c0.9,2.3-0.3,3.9-3.4,4.6
			c-1.4-2.5-5.2-0.8-4.6,1.9c0.3,1.3,0.8,2.8,0.3,4.1c-0.3,0.9-4.5,4.9-4.1,1.1c0.3-2.6-3.4-3.1-4.7-1.3c-1.3,2-8.8,11.3-10.7,4.2
			c-0.7-2.8-4.8-2.1-4.9,0.7c-0.3,5.7-6.3,7.1-9.8,3.2c-1.2-1.3-3-0.7-3.9,0.5c-1.9,2.6-4.9,2.5-7.3,0.9c0.4,0.9,0.8,1.9,1.1,2.8
			c0.6-3.5,1.5-6.8,2.9-10.1c0.8-1.9-1.4-3.5-3.1-3.1c-4.2,1.1-6.2-5.9-1.2-6.3c2-0.2,3.5-2.7,1.8-4.3c0.8-3,2.6-4,5.2-3
			c1.6,0.8,2,0.7,1.3-0.3C53.7,95.2,58.7,95.3,58.5,92L58.5,92z"/>
	</g>
</g>
<g>
	
		<linearGradient id="SVGID_7_" gradientUnits="userSpaceOnUse" x1="10.3905" y1="565.7894" x2="135.0459" y2="565.7894" gradientTransform="matrix(0.9995 3.137018e-02 3.137018e-02 -0.9995 -20.3192 680.783)">
		<stop  offset="0" style="stop-color:#EC258B"/>
		<stop  offset="1" style="stop-color:#2584C6;stop-opacity:0"/>
	</linearGradient>
	<path class="st6" d="M12.1,143.2c-3.7-9.8-5.1-20.4-4-30.8c0.3-2.6,0.7-5.3,2.3-7.3s4.6-3.2,6.8-2c1.8,1,3.1,3.3,5.1,3.1
		c1.5-0.1,2.5-1.6,3.2-3c3.1-5.8,5.3-12.4,10.4-16.7c5.1-4.2,14.4-4.2,16.9,1.9c1.5,3.6,0.4,8.5,3.5,10.9c2.2,1.7,5.4,1,7.8-0.4
		s4.2-3.6,6.5-5.1c7.5-4.7,19.1,0.3,20.8,9c0.2,1.3,0.3,2.6,1.2,3.6c0.6,0.7,1.6,1.1,2.5,1.3c5.2,1.4,11,0.2,15.1-3.1
		c2-1.6,4.1-3.8,6.6-3.4c1.2,0.2,2.2,0.8,3.1,1.5c6.6,4.4,14,11,12,18.7c-2.6-2.6-7.3,0.3-8.4,3.8s-0.2,7.4-1,11
		c-1.5,6.6-9.5,10.8-15.8,8.3c-5.2-2-10.8-7.6-15.1-4c-2,1.7-2.3,4.7-3.7,6.9c-2.6,4-8.5,4.6-12.9,2.6c-4.3-2,0.4-13.3-2.6-17.1
		c-1.7-2.2-5.2,6.5-7.8,7.4c-1.1,0.4-8.8-2.3-9.6-1.3c-4.7,5.8-11.3,11.8-18.6,10c-5.3-1.2-9.7-6.5-15.1-5.7
		c-4,0.6-8.5,4.4-11.4,1.6"/>
</g>
</svg>
