<?xml version="1.0" encoding="utf-8"?>
<!-- Generator: Adobe Illustrator 22.1.0, SVG Export Plug-In . SVG Version: 6.00 Build 0)  -->
<svg version="1.1" id="Слой_1" xmlns="http://www.w3.org/2000/svg" xmlns:xlink="http://www.w3.org/1999/xlink" x="0px" y="0px"
	 viewBox="0 0 426.2 149.2" style="enable-background:new 0 0 426.2 149.2;" xml:space="preserve">
<style type="text/css">
	.st0{fill:#010101;stroke:#010101;stroke-miterlimit:10;}
	.st1{fill:url(#SVGID_1_);}
	.st2{fill:#FFFFFF;}
	.st3{font-family:'CenturyGothic-Bold';}
	.st4{font-size:48px;}
	.st5{fill:url(#SVGID_2_);}
	.st6{fill:url(#SVGID_3_);}
	.st7{font-size:12px;}
</style>
<g>
	<path class="st0" d="M-169.4,85.3c25.6-9,49.2-23.7,68.5-42.8c7.7-7.6,14.9-16,24.3-21.4s22-7,30.8-0.7C-30.6,31.3-32.7,60-14.7,65
		c4.5,1.3,9.4,0.5,13.8-0.9C18.3,57.9,31.2,40.2,48,28.9s44.9-12.6,52.4,6.2c4.5,11.3,0.5,27.6,11.1,33.4c7.6,4.2,16.9-0.9,24.1-5.8
		C158,47.3,180.5,32,202.9,16.6c8.4-5.8,20-11.6,28.1-5.3c13.7,10.6-2,40.6,14.2,46.6c3.5,1.3,7.4,0.7,11-0.1
		c20.5-4.3,40-13.1,56.9-25.4c11.3-8.2,21.7-18.2,35-22.7c13.2-4.4,30.7-0.8,36.1,12.1c5.4,12.8-2.6,30.3,7.2,40.2
		c6.7,6.8,18.2,5.5,26.4,0.8c11.1-6.4,18.4-17.5,28-25.9c9.6-8.4,24.2-13.9,34.9-6.9c15.1,9.9,11.1,37,27.2,45.3
		c13,6.6,28-4.8,36.2-16.9s15.7-26.9,29.7-30.7c2.6-0.7,5.6-1,7.9,0.4c2.5,1.4,3.7,4.3,4.4,7.1c3.5,12.7,2.4,29.7,14.5,35.1
		c9.2,4.2,19.8-2.1,26.2-9.9s10.8-17.4,18.7-23.5s21.8-6.6,26.2,2.4c2.8,5.6,0.8,12.7,3.6,18.4c4.6,9.3,19.1,8.3,26.8,1.3
		c7.7-6.9,11.2-17.3,16.8-26s15.7-16.5,25.6-13.4c17.7,34.2,15.5,74.8,12.8,113.2c-1.5,20.8-3.6,43.2-17.4,58.8
		c-14.3,16.1-37.4,20.7-58.8,22.9c-100.1,10.4-200.5-9.6-300.9-16c-178.4-11.3-358.8,20.6-535.5-6.2c-11.7-1.8-23.7-3.9-34.1-9.7
		c-19.1-10.7-30-34.4-25.8-55.9c4.3-21.5,23.3-39.2,45.1-41.9"/>
</g>
<g>
	<g>
		<linearGradient id="SVGID_1_" gradientUnits="userSpaceOnUse" x1="30.8199" y1="102.4829" x2="66.8386" y2="102.4829">
			<stop  offset="0" style="stop-color:#2484C6"/>
			<stop  offset="1" style="stop-color:#2484C6;stop-opacity:0"/>
		</linearGradient>
		<path class="st1" d="M29.8,97.4c5.6,3.7,9.8,9.2,15.7,12.5c2.3,1.3,4.9,2.4,7.6,2.4c1.3,0,2.5-0.2,3.8-0.6
			c1.1-0.4,6.7-3.7,7.1-1.6c0.6,3.2,5.4,1.8,4.8-1.3c-1.8-9.8-12.8-0.5-17.6-1.9c-7.4-2.1-12.5-9.8-18.8-13.9
			C29.6,91.3,27.1,95.6,29.8,97.4L29.8,97.4z"/>
	</g>
</g>
<text transform="matrix(1 0 0 1 24.6032 128.572)" class="st2 st3 st4">C</text>
<g>
	<g>
		<linearGradient id="SVGID_2_" gradientUnits="userSpaceOnUse" x1="22.8558" y1="108.0752" x2="39.2583" y2="108.0752">
			<stop  offset="0" style="stop-color:#2484C6"/>
			<stop  offset="1" style="stop-color:#2484C6;stop-opacity:0"/>
		</linearGradient>
		<path class="st5" d="M41,119.4c-2.2-3.6-5.6-4.5-9.1-6.5c-2.7-1.5-4.8-3.7-5.7-6.8c-0.9-3.3,0.3-8.5,4.6-8c3.2,0.3,3.2-4.7,0-5
			c-6.6-0.6-10.6,6.2-9.9,12.2c0.4,3.6,2.3,7.1,5,9.6c3.1,2.8,8.4,3.5,10.7,7.1C38.4,124.7,42.7,122.2,41,119.4L41,119.4z"/>
	</g>
</g>
<g>
	<g>
		<linearGradient id="SVGID_3_" gradientUnits="userSpaceOnUse" x1="18.22" y1="129.3651" x2="23.0499" y2="129.3651">
			<stop  offset="0" style="stop-color:#2484C6"/>
			<stop  offset="1" style="stop-color:#2484C6;stop-opacity:0"/>
		</linearGradient>
		<path class="st6" d="M20.6,131.9c3.2,0,3.2-5,0-5C17.4,126.9,17.4,131.9,20.6,131.9L20.6,131.9z"/>
	</g>
</g>
<text transform="matrix(1 0 0 1 84.9206 102.5305)"><tspan x="0" y="0" class="st2 st3 st7">Ул.Пионера д.12,</tspan><tspan x="0" y="14.4" class="st2 st3 st7">Москва</tspan></text>
</svg>
