<?xml version="1.0" encoding="utf-8"?>
<!-- Generator: Adobe Illustrator 22.1.0, SVG Export Plug-In . SVG Version: 6.00 Build 0)  -->
<svg version="1.1" xmlns="http://www.w3.org/2000/svg" xmlns:xlink="http://www.w3.org/1999/xlink" x="0px" y="0px"
	 viewBox="0 0 193.2 167" style="enable-background:new 0 0 193.2 167;" xml:space="preserve">
<style type="text/css">
	.st0{fill:url(#SVGID_1_);}
	.st1{fill:url(#SVGID_2_);}
	.st2{fill:url(#SVGID_3_);}
	.st3{fill:url(#SVGID_4_);}
	.st4{fill:url(#SVGID_5_);}
	.st5{fill:url(#SVGID_6_);}
	.st6{fill:url(#SVGID_7_);}
	.st7{fill:url(#SVGID_8_);}
</style>
<g id="Слой_1">
	<g>
		<linearGradient id="SVGID_1_" gradientUnits="userSpaceOnUse" x1="15.1273" y1="86.2498" x2="193.2065" y2="86.2498">
			<stop  offset="0" style="stop-color:#EC228B"/>
			<stop  offset="1" style="stop-color:#2483C5;stop-opacity:0"/>
		</linearGradient>
		<path class="st0" d="M22.5,125.4c-5.7-13.8-8.2-28.9-7.1-43.8c0.3-3.7,0.8-7.5,3-10.5c2.2-3,6.4-4.8,9.7-3.2
			c2.6,1.3,4.5,4.6,7.4,4.3c2.2-0.2,3.5-2.4,4.5-4.4c4.1-8.5,7-18,14.1-24.2s20.3-6.6,24.2,1.9c2.3,5.1,1,12.2,5.5,15.5
			c3.2,2.3,7.8,1.2,11.1-1c3.3-2.2,5.8-5.3,9.1-7.5c10.5-7.1,27.3-0.4,30.1,11.9c0.4,1.8,0.6,3.7,1.9,5.1c0.9,1,2.3,1.5,3.6,1.8
			c7.4,1.7,15.6-0.2,21.5-5.2c2.8-2.4,5.6-5.6,9.3-5.2c1.7,0.2,3.1,1.1,4.5,2c9.6,6,20.5,15.1,18,26.2c-3.8-3.6-10.4,0.7-11.8,5.8
			c-1.4,5.1,0.1,10.6-1,15.8c-1.9,9.5-13.1,15.8-22.2,12.6c-7.5-2.7-15.7-10.3-21.7-5.1c-2.8,2.5-3.1,6.8-5,10
			c-3.5,5.9-12,7-18.2,4.3s-10.9-8.1-15.2-13.4c-2.6-3.1-6.3-6.4-10-4.9c-1.6,0.7-2.7,2.1-3.7,3.5c-6.4,8.5-15.6,17.3-26.1,15.2
			c-7.6-1.5-14.1-8.8-21.8-7.4c-5.7,1.1-11.9,6.7-16.2,2.8"/>
	</g>
</g>
<g id="Слой_2">
	<g>
		
			<linearGradient id="SVGID_2_" gradientUnits="userSpaceOnUse" x1="56.942" y1="237.8922" x2="123.8866" y2="237.8922" gradientTransform="matrix(1 0 0 -1 0 282.1102)">
			<stop  offset="0" style="stop-color:#FFF33B"/>
			<stop  offset="5.948725e-02" style="stop-color:#FFE029"/>
			<stop  offset="0.1303" style="stop-color:#FFD218"/>
			<stop  offset="0.2032" style="stop-color:#FEC90F"/>
			<stop  offset="0.2809" style="stop-color:#FDC70C"/>
			<stop  offset="0.6685" style="stop-color:#F3903F"/>
			<stop  offset="0.8876" style="stop-color:#ED683C"/>
			<stop  offset="1" style="stop-color:#E93E3A"/>
		</linearGradient>
		<path class="st1" d="M57.7,57.5c-0.2-2.8-0.5-5.6-0.7-8.4c-0.1-0.9-0.1-2,0.3-2.8c0.5-0.9,1.6-1.3,2.6-1.6
			c4.8-1.4,10.1-1.2,14.8,0.7c3.4-13.2,15.4-23.7,28.9-25.3c3.6,7.5-1.2,16.1-5.7,23c4.4-5.2,10.4-8.9,16.9-10.7
			c2.7-0.7,6-0.9,7.9,1.1c2.1,2.3,1.2,6.1-1,8.4c-2.1,2.2-5.1,3.4-7.8,5c-2.7,1.6-5.2,4-5.4,7.1c4.6-0.2,9.2,2.8,10.9,7.1
			c0.2,0.5,0.4,1.1,0.2,1.6c-0.2,0.7-0.9,1.1-1.5,1.4c-9,4.5-19.5,5-29.4,3.2s-19.2-5.7-28.4-9.6"/>
		<g>
			
				<linearGradient id="SVGID_3_" gradientUnits="userSpaceOnUse" x1="56.3963" y1="237.9126" x2="124.3295" y2="237.9126" gradientTransform="matrix(1 0 0 -1 0 282.1102)">
				<stop  offset="0" style="stop-color:#FFF33B"/>
				<stop  offset="5.948725e-02" style="stop-color:#FFE029"/>
				<stop  offset="0.1303" style="stop-color:#FFD218"/>
				<stop  offset="0.2032" style="stop-color:#FEC90F"/>
				<stop  offset="0.2809" style="stop-color:#FDC70C"/>
				<stop  offset="0.6685" style="stop-color:#F3903F"/>
				<stop  offset="0.8876" style="stop-color:#ED683C"/>
				<stop  offset="1" style="stop-color:#E93E3A"/>
			</linearGradient>
			<path class="st2" d="M60.2,57.5c-0.3-3.3-1.9-8.8,1.2-10.6c3.3-1.9,9.5-0.2,12.7,0.9c1.3,0.4,2.7-0.5,3.1-1.7
				c3.5-12.6,14.1-21.7,27.1-23.5c-1-0.6-2.1-1.2-3.1-1.7c3.1,7.6-1.4,14.8-5.5,21.1c-1.5,2.4,2,5.2,3.9,3c3-3.4,6.5-6.2,10.6-8.1
				c1.6-0.8,3.5-1.5,5.3-1.9c1.4-0.4,2.8-0.5,4.3-0.3c2,1.9,2,3.7,0.2,5.5c-4.5,5.1-12.5,5-13.9,13c-0.3,1.6,0.7,3.1,2.4,3.2
				c2.8,0.1,6.1,1.2,7.5,3.8c1.6,2.8-2.4,3.2-4.8,3.9c-5.1,1.5-10.5,1.9-15.9,1.5c-11.8-0.8-23-5.5-33.8-10.1
				c-2.9-1.3-5.5,3-2.5,4.3c15.8,6.8,32.8,13.5,50.3,9.9c4-0.8,13.7-2.6,12.7-8.5c-1-6.1-8-9.6-13.5-9.8c0.8,1.1,1.6,2.1,2.4,3.2
				c1.2-6.4,9.9-7.1,13.4-12c2.4-3.3,3-8.3-0.4-11.3c-8.1-6.9-22.6,4.1-27.9,10c1.3,1,2.6,2,3.9,3c4.8-7.3,9.6-16.1,6-24.9
				c-0.6-1.4-1.6-2-3.1-1.7c-14.6,2.1-26.6,12.9-30.5,27c1-0.6,2.1-1.2,3.1-1.7c-5.3-1.8-12.6-2.8-17.8-0.1s-2.9,10-2.5,14.6
				C55.5,60.7,60.5,60.7,60.2,57.5L60.2,57.5z"/>
		</g>
	</g>
	<g>
		
			<linearGradient id="SVGID_4_" gradientUnits="userSpaceOnUse" x1="100.5738" y1="195.4135" x2="162.597" y2="195.4135" gradientTransform="matrix(1 0 0 -1 0 282.1102)">
			<stop  offset="0" style="stop-color:#FFF33B"/>
			<stop  offset="5.948725e-02" style="stop-color:#FFE029"/>
			<stop  offset="0.1303" style="stop-color:#FFD218"/>
			<stop  offset="0.2032" style="stop-color:#FEC90F"/>
			<stop  offset="0.2809" style="stop-color:#FDC70C"/>
			<stop  offset="0.6685" style="stop-color:#F3903F"/>
			<stop  offset="0.8876" style="stop-color:#ED683C"/>
			<stop  offset="1" style="stop-color:#E93E3A"/>
		</linearGradient>
		<path class="st3" d="M104.3,96.4c-1.3-2.1-0.8-5,0.7-6.9s3.9-3,6.3-3.6c3.6-1,8.6-0.3,9.4,3.3c0.6-9.8,6.6-19,15.3-23.6
			c1.8,5.8,1.8,12.2-0.1,18c3.8-2.4,7.7-4.5,11.8-6.4c1.4-0.7,3-1.3,4.6-1.1s3.1,1.5,3,3.1c-0.1,0.8-0.5,1.5-0.9,2.1
			c-2,3.1-3.9,6.1-5.9,9.2c3.3,3.6,10.8-0.7,13.5,3.4c1.1,1.7,0.6,4.1-0.8,5.7s-3.3,2.4-5.3,3.1c-16.3,6-34.5,6.7-51.2,2
			c-1.2-0.3-2.4-0.7-3.2-1.6c-1.9-2.1-0.5-5.4,0.9-7.8"/>
		<g>
			
				<linearGradient id="SVGID_5_" gradientUnits="userSpaceOnUse" x1="100.051" y1="195.8604" x2="163.1043" y2="195.8604" gradientTransform="matrix(1 0 0 -1 0 282.1102)">
				<stop  offset="0" style="stop-color:#FFF33B"/>
				<stop  offset="5.948725e-02" style="stop-color:#FFE029"/>
				<stop  offset="0.1303" style="stop-color:#FFD218"/>
				<stop  offset="0.2032" style="stop-color:#FEC90F"/>
				<stop  offset="0.2809" style="stop-color:#FDC70C"/>
				<stop  offset="0.6685" style="stop-color:#F3903F"/>
				<stop  offset="0.8876" style="stop-color:#ED683C"/>
				<stop  offset="1" style="stop-color:#E93E3A"/>
			</linearGradient>
			<path class="st4" d="M106.5,95.2c-2.5-5.6,10.1-10.3,11.9-5.3c1,2.7,4.7,2.2,4.9-0.7c0.8-9.2,6-17,14-21.4
				c-1.2-0.5-2.4-1-3.7-1.5c1.6,5.6,1.5,11-0.1,16.6c-0.6,2.1,1.8,4,3.7,2.8c3.3-2,7.3-5,11.1-6c4.8-1.3,3.8,0.6,2,3.3
				c-1.3,2-2.6,4.1-3.9,6.1c-0.6,0.9-0.4,2.3,0.4,3c3.5,3,6.5,1.3,10.5,2.2c6.5,1.5-1.8,5.7-4.6,6.6c-3.1,1-6.3,1.9-9.5,2.5
				c-6.8,1.4-13.8,1.8-20.8,1.4c-3.4-0.2-6.7-0.6-10-1.2c-3.7-0.7-11.1-1.3-7.8-7.4c1.5-2.8-2.8-5.4-4.3-2.5c-1.6,3-3.1,6.6-1.2,9.7
				c2,3.4,6.8,3.9,10.3,4.6c10.7,2.2,21.8,2.4,32.6,0.6c6.7-1.1,21.5-3,23.1-11.5c0.5-2.8-0.6-5.7-3.2-7.1
				c-3.4-1.8-8.6,0.7-11.4-1.7c0.1,1,0.3,2,0.4,3c2.7-4.2,11.1-12.8,4.5-17.1c-5.8-3.8-15.8,3.9-20.5,6.8c1.2,0.9,2.4,1.9,3.7,2.8
				c1.9-6.4,1.9-12.8,0.1-19.3c-0.4-1.6-2.3-2.3-3.7-1.5c-9.6,5.4-15.5,14.8-16.5,25.7c1.6-0.2,3.3-0.4,4.9-0.7
				c-4.4-11.9-26.5-3.3-21.1,9.1C103.4,100.6,107.7,98.1,106.5,95.2L106.5,95.2z"/>
		</g>
	</g>
	<g>
		
			<linearGradient id="SVGID_6_" gradientUnits="userSpaceOnUse" x1="8.9234" y1="104.5727" x2="187.0025" y2="104.5727" gradientTransform="matrix(0.9995 3.137018e-02 -3.137018e-02 0.9995 3.6185 -3.0248)">
			<stop  offset="0" style="stop-color:#EC228B"/>
			<stop  offset="1" style="stop-color:#2483C5;stop-opacity:0"/>
		</linearGradient>
		<path class="st5" d="M15.4,141.1c-5.3-14-7.3-29.2-5.7-44c0.4-3.7,1-7.5,3.3-10.4c2.2-2.9,6.5-4.6,9.8-2.9
			c2.6,1.4,4.4,4.7,7.3,4.5c2.2-0.2,3.6-2.3,4.6-4.2c4.4-8.4,7.6-17.8,14.8-23.8s20.5-6,24.2,2.7c2.2,5.2,0.6,12.2,5,15.6
			c3.1,2.4,7.8,1.5,11.1-0.6c3.3-2.1,6-5.2,9.3-7.3c10.7-6.7,27.3,0.4,29.7,12.9c0.3,1.8,0.5,3.7,1.7,5.1c0.9,1,2.3,1.5,3.6,1.9
			c7.4,2,15.6,0.3,21.6-4.5c2.9-2.3,5.8-5.4,9.5-4.9c1.6,0.2,3.1,1.2,4.5,2.1c9.4,6.3,20,15.7,17.2,26.7c-3.7-3.8-10.5,0.4-12,5.4
			c-1.5,5.1-0.3,10.6-1.5,15.8c-2.2,9.4-13.6,15.4-22.6,11.9c-7.4-2.9-15.4-10.8-21.5-5.8c-2.9,2.4-3.3,6.7-5.3,9.8
			c-3.7,5.8-12.2,6.6-18.4,3.7C99.4,148,95,142.4,90.8,137c-2.5-3.1-6.1-6.6-9.8-5.2c-1.6,0.6-2.8,2-3.8,3.4
			c-6.7,8.3-16.2,16.8-26.5,14.4c-7.6-1.8-13.8-9.3-21.5-8.1c-5.7,0.9-12.1,6.3-16.2,2.3"/>
	</g>
	<g>
		
			<linearGradient id="SVGID_7_" gradientUnits="userSpaceOnUse" x1="40.4417" y1="177.8846" x2="89.0915" y2="177.8846" gradientTransform="matrix(1 0 0 -1 0 282.1102)">
			<stop  offset="0" style="stop-color:#FFF33B"/>
			<stop  offset="5.948725e-02" style="stop-color:#FFE029"/>
			<stop  offset="0.1303" style="stop-color:#FFD218"/>
			<stop  offset="0.2032" style="stop-color:#FEC90F"/>
			<stop  offset="0.2809" style="stop-color:#FDC70C"/>
			<stop  offset="0.6685" style="stop-color:#F3903F"/>
			<stop  offset="0.8876" style="stop-color:#ED683C"/>
			<stop  offset="1" style="stop-color:#E93E3A"/>
		</linearGradient>
		<path class="st6" d="M88.1,89.3c0.9-0.8,0.7-2.3,0-3.3c-0.8-0.9-1.9-1.4-3.1-1.8c-2.8-1-5.9-1.8-8.9-1.2c-3,0.6-5.7,2.8-6.1,5.8
			c-5.9-2.4-11.8-4.9-18.1-5.9c-2.5-0.4-5.2-0.5-7.6,0.5c-2.4,1-4.2,3.5-3.8,6.1c0.5,2.8,3.4,4.5,6.2,5.2s5.8,0.7,8.2,2.1
			c-3.7,2.2-7,5-9.8,8.2c-0.4,0.5-0.8,1-0.8,1.6c0,1,1.2,1.6,2.2,1.9c5.1,1.3,10.5,1.6,15.7,0.8c-1.5,3.2-5.4,5.1-6.2,8.6
			c-0.8,3.4,2.1,7,5.5,7.7s7-0.8,9.6-3.1c2.6-2.4,4.4-5.5,6.1-8.5c3.9-6.9,7.8-13.8,11.8-20.7"/>
		<g>
			
				<linearGradient id="SVGID_8_" gradientUnits="userSpaceOnUse" x1="39.9417" y1="177.9524" x2="89.526" y2="177.9524" gradientTransform="matrix(1 0 0 -1 0 282.1102)">
				<stop  offset="0" style="stop-color:#FFF33B"/>
				<stop  offset="5.948725e-02" style="stop-color:#FFE029"/>
				<stop  offset="0.1303" style="stop-color:#FFD218"/>
				<stop  offset="0.2032" style="stop-color:#FEC90F"/>
				<stop  offset="0.2809" style="stop-color:#FDC70C"/>
				<stop  offset="0.6685" style="stop-color:#F3903F"/>
				<stop  offset="0.8876" style="stop-color:#ED683C"/>
				<stop  offset="1" style="stop-color:#E93E3A"/>
			</linearGradient>
			<path class="st7" d="M90.2,90.6c5.6-9.9-19.4-15.2-22.6-2.4c1-0.6,2.1-1.2,3.1-1.7c-7.8-3.2-23.6-11.1-30.7-2.8
				c-2.3,2.7-2.8,6.6-0.5,9.5C43,97.8,49,96.9,53.7,99c0-1.4,0-2.9,0-4.3c-3.5,2.2-14.2,8.5-11.2,13.8c3.1,5.4,15.6,3.9,20.6,3.2
				c-0.9-1.2-1.9-2.4-2.8-3.7c-2.8,4.8-8.7,7.9-6,14.3c1.8,4.3,6.5,6.5,11,5.8c5.9-0.9,9.8-5.5,12.8-10.3
				c4.7-7.6,8.9-15.5,13.3-23.3c1.6-2.8-2.7-5.3-4.3-2.5c-4.6,8.1-8.9,16.8-14.1,24.6c-2.4,3.5-8.3,9.8-13,5.4
				c-4-3.7,2.8-8.3,4.6-11.5c1.2-2.1-0.8-4-2.8-3.7c-1.1,0.1-14.3,1-14.4-0.8c0-0.1,2.9-2.7,3-2.7c1.8-1.7,3.8-3.1,6-4.4
				c1.5-0.9,1.8-3.5,0-4.3c-2.9-1.3-5.8-1.5-8.8-2.4c-2.3-0.7-2.8-0.8-3.1-3.4c-1-2-0.2-3.2,2.2-3.5c1.1-0.2,2.1-0.3,3.2-0.2
				c6.8,0.3,13.6,3.5,19.8,6c1.2,0.5,2.8-0.6,3.1-1.7c0.9-3.5,3.8-4.2,7-4.1c0.6,0,7.3,1.2,6.5,2.6C84.3,90.8,88.7,93.4,90.2,90.6
				L90.2,90.6z"/>
		</g>
	</g>
</g>
<g id="Слой_3">
</g>
</svg>
