<?xml version="1.0" encoding="utf-8"?>
<!-- Generator: Adobe Illustrator 22.1.0, SVG Export Plug-In . SVG Version: 6.00 Build 0)  -->
<svg version="1.1" id="Слой_1" xmlns="http://www.w3.org/2000/svg" xmlns:xlink="http://www.w3.org/1999/xlink" x="0px" y="0px"
	 viewBox="0 0 393 172.3" style="enable-background:new 0 0 393 172.3;" xml:space="preserve">
<style type="text/css">
	.st0{fill:url(#SVGID_1_);}
	.st1{fill:url(#SVGID_2_);}
</style>
<g>
	<linearGradient id="SVGID_1_" gradientUnits="userSpaceOnUse" x1="4.8029" y1="81.3109" x2="374.9749" y2="81.3109">
		<stop  offset="0" style="stop-color:#EE2A7B"/>
		<stop  offset="1" style="stop-color:#2484C6;stop-opacity:0"/>
	</linearGradient>
	<path class="st0" d="M45,118.3c-6,0.5-11.9,1-17.9,1.6c-3.9-3.1-3.3-9.3-0.7-13.5c2.6-4.2,6.7-7.2,9.7-11.2
		c3.1-4.2,4.8-9.3,6.6-14.3c3.9-10.8,9-21.5,17.1-29.7s19.6-13.6,31-12.1c11.4,1.5,21.9,11.3,22,22.8c6.3-16.6,13.1-33.8,26.2-45.7
		c13.1-11.9,34.7-16.5,48.5-5.5c6.2,5,10.1,12.3,13.2,19.7c4.1,9.8,7.2,20,9.3,30.4c5.7-9.2,11.6-18.7,20-25.5
		c8.4-6.8,20.1-10.7,30.4-7.1c13,4.5,19.5,18.8,24.6,31.6c3.8,9.5,7.5,19,11.3,28.6c5.6-8.9,13.4-19,23.8-17.9
		c9.8,1,15.6,11.2,23.7,16.7c9.3,6.2,22.6,5.6,31.3-1.5c-6.5,11.9-20,19.6-33.6,19.3c-3.2-0.1-6.8-0.5-9.4,1.5
		c-2,1.5-2.9,4.1-3.8,6.5c-6.1,16-19.6,29.1-35.9,34.5c-16.3,5.4-34.9,3.2-49.4-6c-2.6-1.7-5.3-3.6-8.3-3.9c-4.2-0.5-8.1,2-11.7,4.2
		c-15.1,9.4-32.2,15.9-49.9,16.6c-17.7,0.7-36-4.8-49-16.9c-25.3,21.9-67.8,20.1-91.1-3.9c-10,7.8-26.8-1.2-28-13.8
		s10.4-24.1,23-25.4c1.4,7.6,7.8,14.1,15.3,15.6"/>
</g>
<g>
	<linearGradient id="SVGID_2_" gradientUnits="userSpaceOnUse" x1="15.8029" y1="95.3109" x2="385.9749" y2="95.3109">
		<stop  offset="0" style="stop-color:#EE2A7B"/>
		<stop  offset="1" style="stop-color:#2484C6;stop-opacity:0"/>
	</linearGradient>
	<path class="st1" d="M56,132.3c-6,0.5-11.9,1-17.9,1.6c-3.9-3.1-3.3-9.3-0.7-13.5c2.6-4.2,6.7-7.2,9.7-11.2
		c3.1-4.2,4.8-9.3,6.6-14.3c3.9-10.8,9-21.5,17.1-29.7s19.6-13.6,31-12.1c11.4,1.5,21.9,11.3,22,22.8c6.3-16.6,13.1-33.8,26.2-45.7
		c13.1-11.9,34.7-16.5,48.5-5.5c6.2,5,10.1,12.3,13.2,19.7c4.1,9.8,7.2,20,9.3,30.4c5.7-9.2,11.6-18.7,20-25.5
		c8.4-6.8,20.1-10.7,30.4-7.1c13,4.5,19.5,18.8,24.6,31.6c3.8,9.5,7.5,19,11.3,28.6c5.6-8.9,13.4-19,23.8-17.9
		c9.8,1,15.6,11.2,23.7,16.7c9.3,6.2,22.6,5.6,31.3-1.5c-6.5,11.9-20,19.6-33.6,19.3c-3.2-0.1-6.8-0.5-9.4,1.5
		c-2,1.5-2.9,4.1-3.8,6.5c-6.1,16-19.6,29.1-35.9,34.5c-16.3,5.4-34.9,3.2-49.4-6c-2.6-1.7-5.3-3.6-8.3-3.9c-4.2-0.5-8.1,2-11.7,4.2
		c-15.1,9.4-32.2,15.9-49.9,16.6c-17.7,0.7-36-4.8-49-16.9c-25.3,21.9-67.8,20.1-91.1-3.9c-10,7.8-26.8-1.2-28-13.8
		c-1.2-12.6,10.4-24.1,23-25.4c1.4,7.6,7.8,14.1,15.3,15.6"/>
</g>
</svg>
