<?xml version="1.0" encoding="utf-8"?>
<!-- Generator: Adobe Illustrator 22.1.0, SVG Export Plug-In . SVG Version: 6.00 Build 0)  -->
<svg version="1.1" id="Слой_1" xmlns="http://www.w3.org/2000/svg" xmlns:xlink="http://www.w3.org/1999/xlink" x="0px" y="0px"
	 viewBox="0 0 636.2 182" style="enable-background:new 0 0 636.2 182;" xml:space="preserve">
<style type="text/css">
	.st0{fill:url(#SVGID_1_);}
	.st1{fill:url(#SVGID_2_);}
</style>
<g>
	<linearGradient id="SVGID_1_" gradientUnits="userSpaceOnUse" x1="18.2476" y1="102.6385" x2="620.0961" y2="102.6385">
		<stop  offset="0" style="stop-color:#EC228B"/>
		<stop  offset="1" style="stop-color:#2483C5;stop-opacity:0"/>
	</linearGradient>
	<path class="st0" d="M28.1,125.2C47.1,99.6,72.8,79,102,66c12-5.3,26.7-9.1,37.4-1.6c11.9,8.4,14.6,28.3,28.8,31.5
		c10.6,2.4,20.5-6.9,25.2-16.7c4.7-9.8,6.7-21.1,13.5-29.6c10.7-13.5,29.8-16.3,46.9-18.1c16.5-1.7,35.2-2.7,47.3,8.6
		c8.2,7.7,11.3,19.3,16,29.5c4.8,10.2,13.5,20.5,24.7,20.1c6.2-0.2,11.7-3.7,16.7-7.4c12.1-9,22.7-20,34.9-28.9
		c12.2-8.9,26.8-15.8,41.8-14.9c15.1,1,30.2,11.7,32.1,26.7c0.5,3.5,0.2,7.2,1.2,10.6c3,10.4,16.6,14.5,26.9,11.1
		c10.3-3.4,18-11.8,25.3-19.8c7.3-8,15.4-16.2,25.9-18.9c13.5-3.4,28.9,4.6,33.9,17.5c4,10.2,2.5,23.3,10.8,30.5
		c7.7,6.7,19.8,4.3,28.7-0.8c-15.2,19.8-32.6,41-57.2,45.2c-31.5,5.5-63.7-19.2-94.2-9.7c-19.3,6-32.2,24.1-49.9,33.9
		c-21.3,11.8-47.1,10.4-71.3,8.3c-19.7-1.8-40-4-57.5-13.2c-20.3-10.7-39-30.9-61.6-27c-9,1.5-16.9,6.8-24.8,11.4
		c-24.5,14-55.3,21.5-80.9,9.6c-15-7-27.5-20.1-43.9-22.7c-7.4-1.1-15,0.1-22.4,1.3c-13.6,2.2-28.4,5-37.4,15.4
		c-3.6-13.4,6-28.8,19.6-31.4"/>
</g>
<g>
	<linearGradient id="SVGID_2_" gradientUnits="userSpaceOnUse" x1="30.2476" y1="102.6385" x2="632.0961" y2="102.6385">
		<stop  offset="0" style="stop-color:#EC228B"/>
		<stop  offset="1" style="stop-color:#2483C5;stop-opacity:0"/>
	</linearGradient>
	<path class="st1" d="M40.1,125.2C59.1,99.6,84.8,79,114,66c12-5.3,26.7-9.1,37.4-1.6c11.9,8.4,14.6,28.3,28.8,31.5
		c10.6,2.4,20.5-6.9,25.2-16.7c4.7-9.8,6.7-21.1,13.5-29.6c10.7-13.5,29.8-16.3,46.9-18.1c16.5-1.7,35.2-2.7,47.3,8.6
		c8.2,7.7,11.3,19.3,16,29.5c4.8,10.2,13.5,20.5,24.7,20.1c6.2-0.2,11.7-3.7,16.7-7.4c12.1-9,22.7-20,34.9-28.9
		c12.2-8.9,26.8-15.8,41.8-14.9c15.1,1,30.2,11.7,32.1,26.7c0.5,3.5,0.2,7.2,1.2,10.6c3,10.4,16.6,14.5,26.9,11.1
		c10.3-3.4,18-11.8,25.3-19.8c7.3-8,15.4-16.2,25.9-18.9c13.5-3.4,28.9,4.6,33.9,17.5c4,10.2,2.5,23.3,10.8,30.5
		c7.7,6.7,19.8,4.3,28.7-0.8c-15.2,19.8-32.6,41-57.2,45.2c-31.5,5.5-63.7-19.2-94.2-9.7c-19.3,6-32.2,24.1-49.9,33.9
		c-21.3,11.8-47.1,10.4-71.3,8.3c-19.7-1.8-40-4-57.5-13.2c-20.3-10.7-39-30.9-61.6-27c-9,1.5-16.9,6.8-24.8,11.4
		c-24.5,14-55.3,21.5-80.9,9.6c-15-7-27.5-20.1-43.9-22.7c-7.4-1.1-15,0.1-22.4,1.3c-13.6,2.2-28.4,5-37.4,15.4
		c-3.6-13.4,6-28.8,19.6-31.4"/>
</g>
</svg>
