<?xml version="1.0" encoding="utf-8"?>
<!-- Generator: Adobe Illustrator 22.1.0, SVG Export Plug-In . SVG Version: 6.00 Build 0)  -->
<svg version="1.1" id="Слой_1" xmlns="http://www.w3.org/2000/svg" xmlns:xlink="http://www.w3.org/1999/xlink" x="0px" y="0px"
	 viewBox="0 0 306.1 36" style="enable-background:new 0 0 306.1 36;" xml:space="preserve">
<style type="text/css">
	.st0{display:none;}
	.st1{display:inline;}
	.st2{fill:#662D91;}
	.st3{fill:url(#SVGID_1_);}
</style>
<g class="st0">
	<g class="st1">
		<path class="st2" d="M-116.7,261c2.7-26.3,4.4-52.6,5.2-79c0.1-3.2-4.9-3.2-5,0c-0.8,26.4-2.6,52.7-5.2,79
			C-122,264.2-117,264.2-116.7,261L-116.7,261z"/>
	</g>
</g>
<g>
	<g>
		<linearGradient id="SVGID_1_" gradientUnits="userSpaceOnUse" x1="4.5169" y1="19.2497" x2="306.2001" y2="19.2497">
			<stop  offset="0" style="stop-color:#EE2565"/>
			<stop  offset="1" style="stop-color:#2484C6;stop-opacity:0"/>
		</linearGradient>
		<path class="st3" d="M3.6,17.7c3.6,11.6,16.2,13.6,25.3,7.1c4.8-3.4,8.6-8.1,13.6-11.3c7.3-4.6,13-0.9,18.9,3.9
			c3.5,2.9,7.6,5.9,12.4,5c7.1-1.3,10.6-11.7,18.2-10c4.8,1.1,4.2,5.8,5.6,9.7c0.7,2,1.7,3.8,3.5,4.9c4.4,2.9,9.3-0.1,12.5-3.4
			c2.1-2.1,3.5-4.6,5.1-7.1c3-4.6,9.8-11.7,14.5-4.6c2.9,4.4,2.7,10.2,8.1,12.7c15.3,7,22.1-19.6,36.4-14.9
			c5.6,1.8,4.5,7.6,5.9,12.1c0.8,2.7,2.4,4.9,4.6,6.7c4.2,3.3,9.9,4.4,15.1,3.3c7-1.6,12.7-6.5,17.3-11.8c6.1-7,16.1-16.1,22.4-3.7
			c2.8,5.5,7.5,9,13.8,9.3c6.7,0.4,10.9-3.1,15-7.9c3.2-3.8,8.2-10.2,12.6-3.6c2,2.9,2.4,6.4,4.9,9.2c4.4,5,11,7,17.4,5.8
			c1.6-0.3,0.9-2.7-0.7-2.4c-4.3,0.8-8.6-0.1-12.2-2.6c-3.7-2.6-4.8-6.2-6.7-10.1c-1.8-3.7-5.2-6.6-9.5-5c-5.7,2.1-7.9,9-12.8,12.2
			c-7.2,4.6-16.1,0.9-19.6-6.1c-2.5-4.9-5.7-8.1-11.6-7.4c-6.5,0.8-10.7,6.1-14.7,10.7c-5.6,6.4-13.7,13.2-23,11.1
			c-3.6-0.8-7.2-2.8-9-6.1c-1.9-3.5-1.1-7.7-2.9-11.2c-2.1-4.1-6.6-5.5-11-5c-6.3,0.8-10.6,5.6-15,9.8c-2.9,2.7-6,5.3-10,6
			c-6.5,1.3-9-3.3-11-8.4c-1.6-4.1-4.1-8.4-9.2-8c-5.5,0.4-9.4,6-12,10.2c-1.9,3.1-4.2,6.3-7.5,8.1c-6,3.3-8.2-2.7-9.3-7.4
			c-1.1-4.3-3.2-8.4-8.3-8.2c-6.6,0.3-9.2,7-14.5,9.7c-7.9,4-13.5-4.9-19.7-8.3c-4.5-2.5-9.3-2.5-13.8-0.1
			c-5.4,2.9-9.4,7.8-14.2,11.5C20.7,27.9,9.3,27.8,6,17C5.5,15.5,3.1,16.1,3.6,17.7L3.6,17.7z"/>
	</g>
</g>
</svg>
