<?xml version="1.0" encoding="utf-8"?>
<!-- Generator: Adobe Illustrator 22.1.0, SVG Export Plug-In . SVG Version: 6.00 Build 0)  -->
<svg version="1.1" id="Слой_1" xmlns="http://www.w3.org/2000/svg" xmlns:xlink="http://www.w3.org/1999/xlink" x="0px" y="0px"
	 viewBox="0 0 465.5 359" style="enable-background:new 0 0 465.5 359;" xml:space="preserve">
<style type="text/css">
	.st0{fill:url(#SVGID_1_);}
	.st1{fill:url(#SVGID_2_);}
	.st2{fill:url(#SVGID_3_);}
	.st3{fill:url(#SVGID_4_);}
	.st4{fill:#FED315;}
	.st5{fill:#FFFFFF;}
	.st6{fill:url(#SVGID_5_);}
	.st7{fill:#FAAF40;}
	.st8{fill:#EF7FB2;}
</style>
<g>
	<linearGradient id="SVGID_1_" gradientUnits="userSpaceOnUse" x1="787.2011" y1="-694.8824" x2="1053.5665" y2="-694.8824">
		<stop  offset="0" style="stop-color:#763FF5"/>
		<stop  offset="8.104094e-02" style="stop-color:#7248F2"/>
		<stop  offset="0.2158" style="stop-color:#6862E9"/>
		<stop  offset="0.3876" style="stop-color:#578BDB"/>
		<stop  offset="0.5674" style="stop-color:#43BEC9"/>
		<stop  offset="0.8652" style="stop-color:#E828CB"/>
		<stop  offset="0.9944" style="stop-color:#FF1E44"/>
	</linearGradient>
	<path class="st0" d="M859.7-882.6c-8.8-7.4-17.8-15-28.8-18.5c-10.9-3.5-24.4-1.8-31.6,7.1c-4,4.8-5.7,11-7,17.1
		c-7.3,33.1-6.8,67.9,1.5,100.8c8.3,33.1,24.4,66.6,16.3,99.7c-2.5,10.1-7.2,19.6-8.5,30c-1.3,10.3,1.9,22.3,11.1,27.1
		c4.8,2.5,10.4,2.6,15.7,3.6c17.7,3.4,32.9,17.7,37.2,35.2c5.1,20.7-4.1,42-5.8,63.3s11.1,47.9,32.3,45.7
		c12.8-1.3,22.2-13.1,25.8-25.4c3.6-12.3,2.8-25.4,3.7-38.2c1.5-20.1,7.3-39.9,17.1-57.5c4.3-7.7,9.6-15.4,17.6-19.3
		s19-2.7,23.7,4.8c5.1,7.9,1.3,18.3-1.2,27.4c-5.2,18.8-4.1,39.2,3.1,57.3c1,2.5,2.3,5.2,4.7,6.4c2.7,1.4,5.9,0.5,8.7-0.8
		c18.8-8.7,23.9-32.9,24.4-53.7c0.5-20.7-0.3-43.8,13.5-59.3c5.6-6.3,13.4-10.9,17.5-18.3c10.9-19.8-11.2-42.2-32.6-49.2
		c-21.4-7-47-9.4-60.2-27.6c-21.1-29,6-74.2-13.5-104.2c-17-26.3-63-29.6-68.3-60.4c-1.1-6.5,0-13.3-2.1-19.6
		c-2.1-6.2-9.6-11.6-15.1-8c-9,5.2-9.7,20.2-1.3,26.2"/>
	<g>
		<linearGradient id="SVGID_2_" gradientUnits="userSpaceOnUse" x1="786.7011" y1="-694.779" x2="1054.0665" y2="-694.779">
			<stop  offset="0" style="stop-color:#763FF5"/>
			<stop  offset="8.104094e-02" style="stop-color:#7248F2"/>
			<stop  offset="0.2158" style="stop-color:#6862E9"/>
			<stop  offset="0.3876" style="stop-color:#578BDB"/>
			<stop  offset="0.5674" style="stop-color:#43BEC9"/>
			<stop  offset="0.8652" style="stop-color:#E828CB"/>
			<stop  offset="0.9944" style="stop-color:#FF1E44"/>
		</linearGradient>
		<path class="st1" d="M860.8-883.7c-15.4-13-40.1-30.7-59.7-14.3c-9.4,7.9-10.9,22.3-12.7,33.6c-2.3,14.4-3.1,29-2.5,43.6
			c0.6,14.6,2.6,29.1,6,43.2c3.3,13.8,8,27.3,11.9,41c4.1,14.3,7.5,29.2,6.9,44.2c-0.6,15.5-7.9,28.7-10.3,43.7
			c-1.5,9.3-0.1,20.3,6.9,27.2c3.5,3.4,7.9,5,12.6,5.8c6.9,1.3,13.4,2,19.7,5.2c11,5.6,19.9,15.6,23.7,27.5
			c4.5,14.2,1.3,29.2-1.5,43.4c-2.3,11.6-4.9,23.4-2.9,35.3c1.5,9.2,5.3,18.5,11.7,25.4c5.9,6.4,14.1,9.9,22.9,8.6
			c10-1.6,17.9-9.2,22.5-17.9c6.1-11.6,6.2-25,6.7-37.8c0.5-14.3,2.5-28.2,6.9-41.8c4.2-13,10.2-28,20.3-37.7
			c5.1-4.9,11.9-8,19.1-6.8c7.8,1.3,12.3,7.5,12.1,15.3c-0.1,6.7-2.8,13-4.4,19.4c-1.6,6.7-2.5,13.6-2.6,20.5
			c-0.2,12.2,1.6,27,7.7,37.8c5.2,9.3,15.9,4,22.1-1.4c7.1-6.2,11.3-15,13.8-23.9c6.3-22.8,0.4-47.2,8.2-69.6
			c2-5.8,5.1-11.2,9.4-15.7c4.5-4.7,9.9-8.4,14-13.5c6.1-7.7,7.3-17.3,3.5-26.3c-8.7-20.9-30.9-28.5-50.9-33.8
			c-11.2-3-22.7-6-32.4-12.5c-10-6.7-16-16.9-17.8-28.7c-3.5-22,4.3-44.3,0.9-66.3c-3-19.5-16.2-31.2-32.5-40.5
			c-14.9-8.5-35.8-16.4-41.5-34.2c-3.3-10.2,1.1-23.7-8.5-31.2c-7.1-5.5-15.3-1.6-18.5,6.1c-3,7.2-1.3,16.1,4.9,21
			c1.5,1.2,3.6-0.9,2.1-2.1c-4-3.2-5.9-7.9-5.4-13c0.5-5.9,5.3-13.7,12.2-11.3c12.3,4.4,7.1,22.9,10.8,32.8
			c5.6,14.9,21,22.8,34.1,29.9c16,8.7,32.9,18.1,38,36.9c5.6,20.1-0.8,41.3-0.5,61.7c0.3,19.4,8.2,36,26,45
			c18.9,9.6,41.5,9.6,59.2,21.8c9,6.2,18.2,16,19,27.5c0.9,12.9-9.7,19.6-17.8,27.6c-15.9,15.8-15.5,39.4-16,60.3
			c-0.4,18.8-3.7,47.7-24.7,55.1c-8.7,3-11.2-7.1-13-13.5c-2.1-7.2-3.2-14.7-3.4-22.3c-0.2-6.4,0.3-12.7,1.5-19
			c1.3-6.6,3.7-12.9,4.9-19.5c1.5-8.9-0.6-18.3-9.6-22.1c-8.1-3.4-17.2-1-23.8,4.4c-9,7.2-14.4,18.7-18.8,29
			c-4.9,11.6-8.3,23.8-10.1,36.2c-3.1,22.4,3.2,57.1-21.8,69.2c-22.2,10.8-36.8-16.4-38.1-34.6c-1.8-25.3,13.4-50.1,4.5-75.3
			c-3.2-9.2-9.3-17.3-17.1-23.2c-8.6-6.5-17.6-8.4-28-10.3c-13.3-2.5-18.9-13.8-17.8-26.6c1.2-13.2,8.1-25.3,10-38.4
			c3.7-26.4-5.8-52.2-13.2-77c-8.1-27-12.3-54.6-10.6-82.9c0.8-13.5,2.3-27.8,6.6-40.7c4.2-12.6,15.5-18.5,28.4-17
			c13.5,1.6,24.5,11.1,34.5,19.5C860.1-880.3,862.2-882.4,860.8-883.7L860.8-883.7z"/>
	</g>
</g>
<g>
	<linearGradient id="SVGID_3_" gradientUnits="userSpaceOnUse" x1="13.0544" y1="181.7577" x2="353.3091" y2="181.7577">
		<stop  offset="0" style="stop-color:#763FF5"/>
		<stop  offset="8.104094e-02" style="stop-color:#7248F2"/>
		<stop  offset="0.2158" style="stop-color:#6862E9"/>
		<stop  offset="0.3876" style="stop-color:#578BDB"/>
		<stop  offset="0.5674" style="stop-color:#43BEC9"/>
		<stop  offset="0.8652" style="stop-color:#E828CB"/>
		<stop  offset="0.9944" style="stop-color:#FF1E44"/>
	</linearGradient>
	<path class="st2" d="M13.8,236.5c-4.2-27.9,9.6-55.5,23-81.4C54,122.3,71.1,89.4,89.1,56.9c5.5-9.9,12.6-20.9,24.8-23.4
		c15.5-3.2,28.7,8.7,40.1,18c11.5,9.3,31.3,16.5,41.8,5.9c10.2-10.3,0.3-27,7.4-39c5.9-10.1,22.3-12.9,34.1-8.5s20,13.8,26.7,23.3
		c24.7,34.9,37.7,75.2,58.9,111.9c10,17.3,22,33.9,27.6,52.7c5.6,18.8,3.5,40.9-12,55.3c-9.4,8.8-22.6,13.9-33.4,21.5
		c-10.7,7.7-19.2,20.4-13.8,31.3c7.4,7.5,14.9,15.5,16.9,25.3c2,9.8-3.9,21.6-15.1,23.9c-11,2.3-21-5-30.4-10.2
		c-9.4-5.3-24.3-7.8-30.3,0.6c11.5-29.5,10.5-62.4-2.7-90.9c-16.3,21.6-18.8,50.4-6.4,73.3c2.8,5.1,6.2,11.3,2.6,16.1
		c-2.3,3.1-6.8,4.4-11,5.4c-22.4,5.6-54.3,7.1-60.4-12.2c-1.3-4.1-1-8.5-2.9-12.4c-4.1-8.6-16.9-11.3-27.7-10.3s-21.4,4.6-32.2,4
		c-21-1.3-35.8-17.9-45-34.2s-16.6-34.6-33.3-45.4"/>
	<g>
		<linearGradient id="SVGID_4_" gradientUnits="userSpaceOnUse" x1="12.5544" y1="181.4683" x2="353.8091" y2="181.4683">
			<stop  offset="0" style="stop-color:#763FF5"/>
			<stop  offset="8.104094e-02" style="stop-color:#7248F2"/>
			<stop  offset="0.2158" style="stop-color:#6862E9"/>
			<stop  offset="0.3876" style="stop-color:#578BDB"/>
			<stop  offset="0.5674" style="stop-color:#43BEC9"/>
			<stop  offset="0.8652" style="stop-color:#E828CB"/>
			<stop  offset="0.9944" style="stop-color:#FF1E44"/>
		</linearGradient>
		<path class="st3" d="M15.3,236.1c-4.8-34.3,15.8-66.7,31-95.8c8.1-15.6,16.3-31.1,24.5-46.6c7.6-14.2,14.7-29.1,23.4-42.6
			c3.6-5.6,8.1-11.1,14.2-14.1c7.6-3.8,16.1-2.8,23.5,0.7c11.9,5.8,20.4,16.5,32.4,22.1c9.1,4.3,21.3,7.1,30.2,0.6
			c9.7-7.1,7.2-19.1,7.3-29.5c0.1-7.4,2.3-14,9-17.9c5.8-3.4,13.1-4.2,19.7-3.2c15.4,2.3,25.9,15.1,34.2,27.1
			c17.8,26.1,29.7,55.5,43.5,83.7c6.9,14.2,14.8,27.7,23,41.1c8,13.1,16.1,26.8,19.2,42.1c2.8,13.7,1.4,28.8-6.5,40.6
			c-8.7,13-23.5,18.6-36.2,26.7c-9.3,6-19.3,15.3-19.6,27.2c-0.2,6.7,3.1,9.6,7.3,14.2c5.2,5.7,10.4,12.3,11.4,20.2
			c0.9,6.5-1.7,13.4-6.7,17.6c-6.9,5.7-16.1,4.2-23.6,0.7c-11.1-5.2-21-13.6-34.1-12.2c-4.4,0.5-8.3,2.2-11.1,5.8
			c0.8,0.5,1.7,1,2.5,1.5c11.4-29.9,10.4-62.9-2.8-92c-0.5-1.1-2-0.8-2.6,0c-14.6,19.7-18.8,46-9.2,68.8c2.4,5.8,10.4,15.4,4.9,21.2
			c-3.8,4-11.7,4.7-16.9,5.7c-10.7,2-22.1,3.1-32.9,0.8c-4.7-1-9.4-2.7-13.1-5.9c-4.9-4.3-5.4-9.6-6.6-15.6
			c-2.1-10.1-10.8-14.6-20.4-15.8c-13.1-1.6-25.7,3.7-38.7,3.9c-13.3,0.2-25.1-6.1-34.2-15.6c-18.7-19.4-23.8-48.5-47-63.9
			c-1.6-1.1-3.1,1.5-1.5,2.6c22.1,14.7,27.5,42.3,44.5,61.4c7.7,8.6,17.5,15.6,29,17.8c14.3,2.7,27.8-3.4,42-3.5
			c6.2,0,13,1,18.1,4.8c6.1,4.6,4.9,11.6,7.2,18c2.9,7.9,10.4,12.3,18.3,14.3c10,2.5,20.8,1.9,30.9,0.5c8.1-1.2,24.3-2.3,26.1-12.5
			c1.1-6.4-3.8-12.5-6.3-18c-3.3-7.2-5.1-15.1-5.5-23c-0.8-16.1,4.4-31.7,14-44.6c-0.9,0-1.7,0-2.6,0c12.9,28.4,13.6,60.6,2.5,89.7
			c-0.5,1.4,1.6,2.6,2.5,1.5c10-12.6,28.4,0,38.6,5.4c10.7,5.7,24.4,8.1,33-2.5c7.7-9.5,5.5-21.7-1-31.2c-4.1-6-12.8-11.7-12.9-19.4
			c-0.1-7.8,5.3-14.8,10.9-19.8c11.6-10.4,27.5-14.8,38.6-26c9-9,13.6-21.3,14.1-33.9c1.2-31.1-20.8-56.8-34.9-82.7
			c-16-29.4-27.8-61.1-45.2-89.8c-12.7-21-34.1-50.2-62.6-37.6c-11.3,5-13.5,15.3-13,26.7c0.3,7,1.1,15.1-4.3,20.6
			c-5.4,5.4-13.5,5.5-20.4,3.8c-14.3-3.5-23.5-14.6-35.4-22.1c-10.9-6.9-24.3-9.5-35.4-1.6c-11.3,8-17.2,22.5-23.6,34.2
			c-8.7,16-17.2,32.1-25.7,48.2c-8.5,16.2-17.2,32.4-25.3,48.8c-7.4,14.9-14.1,30.5-16.4,47.1c-1,7.4-1,14.7,0,22.1
			C12.7,238.8,15.5,238,15.3,236.1L15.3,236.1z"/>
	</g>
</g>
<g>
	<path class="st4" d="M301.1,218.7c-11.1,5.7-24.4,3.6-36.6,1.2c-2.9-0.6-5.9-1.2-8.3-2.9c-6.4-4.7-5.3-14.2-4.9-22.1
		c0.4-7.2-0.4-14.5-2.3-21.4c-1.1-4.2-2.1-9.7,1.6-11.8c1.5-0.9,3.3-0.9,5-0.8c3.4,0.1,6.9,0.1,10.3,0.2c1.1,0,2.1,0,3.1-0.4
		c2.3-0.9,3.2-3.6,4.5-5.7c2.2-3.4,7.1-5.5,10.5-3.3c3.7,2.4,4.1,8.2,8,10.4c4.1,2.2,10.1-0.9,13.5,2.4c4.6,4.5-2.4,14.3,2.9,18
		c1.5,1.1,3.6,1.1,5.3,1.9c3.5,1.7,4.3,6.3,4.7,10.2c0.3,3.3,0.6,6.7-0.3,10c-0.9,3.2-3.3,6.2-6.6,6.9c-1.9,0.4-4,0-5.5,1.1
		c-2.9,1.9-3.3,7.8-6.7,7.1"/>
	<g>
		<path class="st4" d="M300.4,217.5c-8.8,4.2-18.4,3.8-27.8,2.4c-8.1-1.3-17.9-2.1-19.6-11.8c-1.4-7.8,0.5-16-0.3-23.9
			c-0.4-3.7-1.1-7.4-2-11c-0.4-1.7-1.3-3.9-1-5.6c0.2-1.1,3.1-4.6,4.3-5.2c1.1-0.5,3.2,0,4.3,0c6.3,0.1,11.8,1.5,15.4-4.5
			c3-5,8.3-8,12.2-1.8c1.4,2.2,2.2,4.8,4.3,6.5c4.9,3.8,15.6-1.3,15.5,7.3c-0.1,4.2-2.4,9.4,0.9,13c2.9,3.1,7.7,1.8,9.4,6.8
			c1.4,4.1,1.9,10.3,0.6,14.5c-1.2,4.1-4.1,5.3-8,6.1c-1.3,0.3-2.4,0.3-3.6,1.1c-1.9,1.3-3.5,6.9-5.8,6.8c-1.9-0.1-1.9,2.9,0,3
			c2.7,0.1,3.8-1.7,5.1-3.8c1.8-3.1,2.4-3.3,6.4-4.3c1.7-0.4,2.9-0.6,4.3-1.6c6.6-4.8,6.1-16.3,3.5-23.1c-1.2-3.2-3-4.5-5.9-5.8
			c-3.3-1.5-5.1-2-4.9-6c0.1-1.8,0.6-3.6,0.7-5.5c0.2-2.7,0.1-5.6-2-7.6c-2.6-2.6-6.2-1.9-9.5-1.9c-6.4-0.1-6.7-4.9-9.9-8.9
			c-2-2.4-4.7-3.6-7.9-3c-3.5,0.6-5.8,2.9-7.6,5.8c-3.9,6.2-11.4,3.6-17.7,4c-9.3,0.7-7.3,9.9-5.8,16.3c1.4,5.7,2,11.6,1.9,17.5
			c-0.1,4.7-0.7,9.5-0.1,14.2c1.4,10.7,9,13.1,18.5,14.8c11.3,2,22.9,3,33.5-2.1C303.6,219.2,302.1,216.6,300.4,217.5L300.4,217.5z"
			/>
	</g>
</g>
<g>
	<path class="st5" d="M99.5,59c5-2.2,8.4-7.1,13.4-9.3c7.8-3.4,16.7,0.5,24.3,4.4c-5.1,1.2-8,7.8-13.3,8.1
		c-6.3,0.3-10.7-8.8-16.8-7.3"/>
</g>
<g>
	<path class="st5" d="M214.7,33.8c3.9-2.2,7.7-4.5,11.6-6.7c1.8-1,3.7-2.1,5.8-2.1c2.6,0,4.9,1.7,7.2,3c4.6,2.5,10.1,3.3,15.2,2.4
		c-6.2-0.9-11.6,3.8-17,7s-13.8,4.2-16.7-1.4"/>
	<g>
		<path class="st5" d="M215,34.4c3.3-1.9,6.6-3.8,9.9-5.7c2.1-1.2,4.5-2.7,7-3c2.5-0.3,5.4,2.1,7.6,3.2c4.8,2.4,9.9,2.9,15.1,2.1
			c0.9-0.1,0.6-1.4-0.2-1.5c-5.7-0.4-10.1,2.5-14.7,5.4c-5,3.2-14.1,7.5-18.3,0.6c-0.5-0.8-1.8-0.1-1.3,0.8
			c2.6,4.2,7.3,4.9,11.8,3.9c8.2-1.8,13.6-9.9,22.5-9.2c-0.1-0.5-0.1-1-0.2-1.5c-5.1,0.8-10,0.1-14.7-2.3c-2.2-1.2-4.3-2.7-6.9-3
			c-2.6-0.3-4.7,0.9-6.9,2.1c-3.9,2.1-7.7,4.5-11.6,6.7C213.4,33.6,214.2,34.9,215,34.4L215,34.4z"/>
	</g>
</g>
<g>
	<g>
		<path class="st5" d="M143.4,91.4C167.1,80.6,193.2,76.8,219,80c5.7,0.7,5.7-8.3,0-9c-27.4-3.3-55,1.2-80.1,12.7
			C133.6,86,138.2,93.8,143.4,91.4L143.4,91.4z"/>
	</g>
</g>
<g>
	<g>
		<path d="M121.7,58.7c7.7,0,7.7-12,0-12C114,46.7,114,58.7,121.7,58.7L121.7,58.7z"/>
	</g>
</g>
<g>
	<g>
		<path d="M231.5,36.8c7.7,0,7.7-12,0-12C223.8,24.8,223.8,36.8,231.5,36.8L231.5,36.8z"/>
	</g>
</g>
<g>
	
		<linearGradient id="SVGID_5_" gradientUnits="userSpaceOnUse" x1="-529.3391" y1="278.4685" x2="-422.4993" y2="278.4685" gradientTransform="matrix(0.9459 0.3244 0.3244 -0.9459 649.2437 579.0644)">
		<stop  offset="0" style="stop-color:#2484C6"/>
		<stop  offset="1" style="stop-color:#2484C6;stop-opacity:0"/>
	</linearGradient>
	<path class="st6" d="M289.1,105.9c-5.9-3.6-3.3-13.6,2.9-16.7c6.1-3,13.5-1.4,20.2,0.3c5.2,1.3,10.8,3,14.4,7.1
		c3.5,4.1,3.6,11.6-1.2,14c-3.4,1.7-8.1,0.4-11.1,2.9c-1.4,1.2-2.2,3.1-2.7,4.9c-2.9,8.6-5.8,17.4-8.5,26
		c11.8,4.8,21.2,14.9,25.9,26.8c4.6,11.9,4.6,25.4,0.7,37.5c-3.2,10.1-9.5,19.6-18.9,24.4c-7.2,3.7-15.5,4.2-23.6,3.8
		c-12.7-0.8-25.5-4.1-36.2-11.1c-10.7-6.9-19.1-17.8-21.8-30.3c-3.4-15.7,2.3-31.8,8.9-46.4c1.9-4.2,4-8.6,7.3-11.8
		c9.2-8.9,24-6.7,36.8-5.7c1.5,0.1,3,0.2,4.2-0.7c0.9-0.7,1.5-1.9,1.9-3.1c1.6-4.2,3.1-8.6,4.6-12.8c1.2-3.4,0.6-9.2-3-8.3"/>
</g>
<g>
	<g>
		<path class="st7" d="M268.3,200.2c3.8-8.4,8.4-16.5,13.9-23.9c1-3,2-3.4,3-1.1c0,1.3,0.1,2.5,0.1,3.8c0.1,2.5,0.1,5,0,7.5
			c0,5-0.3,10-0.6,15c0.6-0.3,1.3-0.5,1.9-0.8c-6.7-7.6-13.4-15.2-20.2-22.8c-0.3,0.6-0.5,1.3-0.8,1.9c12.1,0.6,23.8,3.1,35.1,7.6
			c-0.1-0.7-0.2-1.4-0.3-2.1c-9.8,4.8-20,8.7-30.5,11.6c-1.4,0.4-0.8,2.6,0.6,2.2c10.7-3,21.1-7,31.1-11.9c1-0.5,0.5-1.7-0.3-2.1
			c-11.4-4.5-23.4-7.1-35.7-7.7c-1,0-1.4,1.2-0.8,1.9c6.7,7.6,13.4,15.2,20.1,22.8c0.7,0.8,1.9,0.1,1.9-0.8
			c0.5-6.9,0.7-13.8,0.6-20.6c0-3.2,0.9-8.4-2.6-10.2c-0.4-0.2-1-0.2-1.4,0.2c-6.9,8.7-12.7,18.1-17.2,28.2
			C265.8,200.3,267.7,201.5,268.3,200.2L268.3,200.2z"/>
	</g>
</g>
<g>
	<g>
		<path class="st7" d="M276.4,166.7c1.4,0,1.5-2.3,0-2.3C274.9,164.5,274.9,166.7,276.4,166.7L276.4,166.7z"/>
	</g>
</g>
<g>
	<g>
		<path class="st7" d="M259.4,187.7c1.4,0,1.5-2.3,0-2.3C257.9,185.5,257.9,187.7,259.4,187.7L259.4,187.7z"/>
	</g>
</g>
<g>
	<g>
		<path class="st7" d="M278.4,207.7c1.4,0,1.5-2.3,0-2.3C276.9,205.5,276.9,207.7,278.4,207.7L278.4,207.7z"/>
	</g>
</g>
<g>
	<g>
		<path class="st7" d="M297.4,198.7c1.4,0,1.5-2.3,0-2.3C295.9,196.5,295.9,198.7,297.4,198.7L297.4,198.7z"/>
	</g>
</g>
<g>
	<g>
		<path class="st7" d="M295.4,178.7c1.4,0,1.5-2.3,0-2.3C293.9,176.5,293.9,178.7,295.4,178.7L295.4,178.7z"/>
	</g>
</g>
<g>
	<path class="st8" d="M120,73c-2.3-1.6-4.6-3.1-7-4.7c-1-0.7-2.4-1.4-3.3-0.6c-0.6,0.4-0.8,1.2-0.9,1.9c-0.9,6,2.7,12.4,8.4,14.7
		c0.8,0.3,1.7,0.6,2.5,0.4c0.7-0.2,1.3-0.7,1.8-1.3c2.3-2.3,4.2-4.9,5.7-7.7c1.4-2.6,2.1-6.5-0.5-8c-2.8-1.6-5.8,1.7-7.5,4.5"/>
	<g>
		<path class="st8" d="M120.8,71.7c-2.3-1.6-4.6-3.3-7-4.7c-1.1-0.6-2.2-1.3-3.5-1.1c-3.1,0.4-3.2,4.3-3,6.6
			c0.4,5.4,5.8,14.7,12.4,13.6c3-0.5,5.4-4.3,7-6.6c1.9-2.7,3.9-6.1,3.2-9.5c-0.4-2.4-2.3-4.2-4.9-4.2c-3.2,0.1-5.5,3.2-7.1,5.6
			c-1,1.6,1.6,3.2,2.6,1.5c0.5-0.8,0.9-1.6,1.6-2.2c1.4-1.5,2.1-2.2,3.7-0.7c1.3,1.3,1.3,1.4,0.9,3.1c-0.2,0.8-0.6,1.6-1,2.3
			c-2,3.6-5.5,9.5-10.2,6.1c-2.9-2.1-4.9-5.5-5.2-9c0-0.5-0.3-1.6,0-2c0.8-1.4,2.3-0.5,3.2-0.2c2,0.9,4,2.7,5.8,3.9
			C120.9,75.3,122.4,72.7,120.8,71.7L120.8,71.7z"/>
	</g>
</g>
<g>
	<path class="st8" d="M245,59.1c-5.4-0.4-10.6-3.5-13.5-8.1c-0.3-0.5-0.6-1.2-0.4-1.7c0.2-0.6,0.9-0.8,1.5-1
		c2.5-0.6,5.2-0.5,7.6,0.4c2-1.7-0.3-5.6,1.6-7.3c1.7-1.5,4.3,0.6,5.1,2.7c1.9,4.4,1.4,9.7-1.1,13.8"/>
	<g>
		<path class="st8" d="M245,57.6c-3.7-0.4-7.2-1.9-9.9-4.5c-0.6-0.6-2.8-2.5-2.2-3.3c1-1.3,5.6,0,6.8,0.4c0.5,0.2,1.1,0,1.5-0.4
			c0.7-0.9,1.1-1.6,1.2-2.7c0.1-0.7,0-1.4,0-2c0-1.4-0.6-2,1.1-1.8c2.6,0.2,3,4.7,2.9,6.7c0,2.6-0.8,4.9-2.1,7.1
			c-1,1.7,1.6,3.2,2.6,1.5c2.9-5,4.2-13.8-1-18c-1.5-1.3-3.8-1.8-5.4-0.3c-2.2,2.1,0,5.4-1.6,7.3c0.5-0.1,1-0.3,1.5-0.4
			c-3.2-1.1-13.8-1.7-10.4,4.5c2.9,5.3,9.1,8.2,14.8,8.8C246.9,60.8,246.9,57.8,245,57.6L245,57.6z"/>
	</g>
</g>
</svg>
