<?xml version="1.0" encoding="utf-8"?>
<!-- Generator: Adobe Illustrator 22.1.0, SVG Export Plug-In . SVG Version: 6.00 Build 0)  -->
<svg version="1.1" id="Слой_1" xmlns="http://www.w3.org/2000/svg" xmlns:xlink="http://www.w3.org/1999/xlink" x="0px" y="0px"
	 viewBox="0 0 411.7 173.3" style="enable-background:new 0 0 411.7 173.3;" xml:space="preserve">
<style type="text/css">
	.st0{fill:url(#SVGID_1_);}
	.st1{fill:#FBB040;}
	.st2{fill:url(#SVGID_2_);}
	.st3{fill:url(#SVGID_3_);}
	.st4{fill:url(#SVGID_4_);}
</style>
<g>
	<linearGradient id="SVGID_1_" gradientUnits="userSpaceOnUse" x1="161.2246" y1="101.9955" x2="411.674" y2="101.9955">
		<stop  offset="0" style="stop-color:#EE2A7B"/>
		<stop  offset="1" style="stop-color:#2484C6;stop-opacity:0"/>
	</linearGradient>
	<path class="st0" d="M173.8,124c-7.5-3.2-9.5-14.7-3.7-20.5s16.8-4.4,21.3,2.4c9.4-20.7,28.2-36.9,50-43.1
		c5.6-1.6,11.7-2.6,17.3-0.9c12.4,3.7,17.5,18.1,20.9,30.5c0.1-18.2,10.2-36.1,25.8-45.6c1.6-1,3.4-1.9,5.4-1.9
		c2.2,0.1,4.1,1.4,5.8,2.8c18.2,14.4,29,37.8,28.1,61c-2.4-11.2-1.3-25.6,9.2-30.1c6.9-2.9,15.2,0.1,20.4,5.5
		c5.3,5.3,8.2,12.5,11,19.4c10.1-6.6,26.1,1.9,26.3,14c-9.3,0.5-12.6,12.2-18,19.7c-9.6,13.1-32.3,13.2-41.9,0.1
		c-0.5,10.5-12.8,15.6-23,18.1c-8.4,2.1-17,4.3-25.6,3.1c-8.6-1.2-17.2-6.4-19.6-14.7c-17.8,11.5-41.2,13.8-60.9,5.9
		c-1.8-0.7-3.7-1.5-5.6-1.5c-2.1,0-4,1.1-6,1.9c-6.4,2.7-13.8,3.6-20.2,1.1s-11.5-9-11.3-15.9c-3.4,2-7.3,3.4-11.2,2.8
		c-3.9-0.7-7.4-4.1-7.1-8c0.3-3.9,5.8-6.6,8.6-3.9"/>
</g>
<g>
	<g>
		<path class="st1" d="M497.3,153c2.1,15.8-9.1,27.7-19.3,38.1c-1.9,1.9,0.1,4.5,2.4,4.2c16.6-2.4,31.4,8.7,34.5,24.9
			c0.4,2,3.7,2.5,4.6,0.6c6.5-13.8,13.7-28.6,27.8-36c2-1.1,1.3-3.9-0.6-4.6c-14.8-5.4-33.9-9.9-42.4-24.5c-1.6-2.8-5.9-0.3-4.3,2.5
			c9.3,16,29.2,20.9,45.4,26.8c-0.2-1.5-0.4-3-0.6-4.6c-14.9,7.9-22.7,23.2-29.5,37.8c1.5,0.2,3,0.4,4.6,0.6
			c-3.7-19.2-21.5-31.2-40.7-28.4c0.8,1.4,1.6,2.8,2.4,4.2c11.1-11.3,23.1-24.5,20.8-41.6C501.9,149.9,496.9,149.9,497.3,153
			L497.3,153z"/>
	</g>
</g>
<g>
	<path class="st1" d="M225.6,76.3c-2.4,10.5-10.3,19.6-20.4,23.5c9.6,7.9,19.5,16.3,24.2,27.8c3.9-10.3,9.8-19.9,17.3-28.1
		c-8.9-4.7-16-13-19.2-22.6"/>
	<g>
		<path class="st1" d="M223.2,75.7c-2.5,9.8-9.3,17.9-18.7,21.8c-1.5,0.6-2.7,2.8-1.1,4.2c9.4,7.8,18.8,15.9,23.8,27.3
			c1,2.2,3.9,1.2,4.6-0.6c3.9-10,9.5-19,16.6-27c1-1.2,1-3.1-0.5-3.9c-8.4-4.7-14.8-12-18-21.1c-1.1-3-5.9-1.7-4.8,1.3
			c3.7,10.4,10.7,18.8,20.3,24.1c-0.2-1.3-0.3-2.6-0.5-3.9c-7.7,8.6-13.7,18.4-17.9,29.2c1.5-0.2,3-0.4,4.6-0.6
			c-5.2-11.8-14.9-20.2-24.6-28.3c-0.4,1.4-0.7,2.8-1.1,4.2c11-4.6,19.2-13.6,22.2-25.3C228.9,73.9,224,72.5,223.2,75.7L223.2,75.7z
			"/>
	</g>
</g>
<g>
	<path class="st1" d="M272.6,47c-2.4,10.5-10.3,19.6-20.4,23.5c9.6,7.9,19.5,16.3,24.2,27.8c3.9-10.3,9.8-19.9,17.3-28.1
		c-8.9-4.7-16-13-19.2-22.6"/>
	<g>
		<path class="st1" d="M270.2,46.3c-2.5,9.8-9.3,17.9-18.7,21.8c-1.5,0.6-2.7,2.8-1.1,4.2c9.4,7.8,18.8,15.9,23.8,27.3
			c1,2.2,3.9,1.2,4.6-0.6c3.9-10,9.5-19,16.6-27c1-1.2,1-3.1-0.5-3.9c-8.4-4.7-14.8-12-18-21.1c-1.1-3-5.9-1.7-4.8,1.3
			c3.7,10.4,10.7,18.8,20.3,24.1c-0.2-1.3-0.3-2.6-0.5-3.9c-7.7,8.6-13.7,18.4-17.9,29.2c1.5-0.2,3-0.4,4.6-0.6
			c-5.2-11.8-14.9-20.2-24.6-28.3c-0.4,1.4-0.7,2.8-1.1,4.2c11-4.6,19.2-13.6,22.2-25.3C275.9,44.5,271,43.2,270.2,46.3L270.2,46.3z
			"/>
	</g>
</g>
<g>
	<path class="st1" d="M324.4,93.2c-2.4,10.5-10.3,19.6-20.4,23.5c9.6,7.9,19.5,16.3,24.2,27.8c3.9-10.3,9.8-19.9,17.3-28.1
		c-8.9-4.7-16-13-19.2-22.6"/>
	<g>
		<path class="st1" d="M322,92.5c-2.5,9.8-9.3,17.9-18.7,21.8c-1.5,0.6-2.7,2.8-1.1,4.2c9.4,7.8,18.8,15.9,23.8,27.3
			c1,2.2,3.9,1.2,4.6-0.6c3.9-10,9.5-19,16.6-27c1-1.2,1-3.1-0.5-3.9c-8.4-4.7-14.8-12-18-21.1c-1.1-3-5.9-1.7-4.8,1.3
			c3.7,10.4,10.7,18.8,20.3,24.1c-0.2-1.3-0.3-2.6-0.5-3.9c-7.7,8.6-13.7,18.4-17.9,29.2c1.5-0.2,3-0.4,4.6-0.6
			c-5.2-11.8-14.9-20.2-24.6-28.3c-0.4,1.4-0.7,2.8-1.1,4.2c11-4.6,19.2-13.6,22.2-25.3C327.6,90.7,322.8,89.4,322,92.5L322,92.5z"
			/>
	</g>
</g>
<g>
	<linearGradient id="SVGID_2_" gradientUnits="userSpaceOnUse" x1="157.0515" y1="127.6629" x2="357.4109" y2="127.6629">
		<stop  offset="0" style="stop-color:#EE2A7B"/>
		<stop  offset="1" style="stop-color:#2484C6;stop-opacity:0"/>
	</linearGradient>
	<path class="st2" d="M167.1,145.3c-6-2.5-7.6-11.7-3-16.4c4.6-4.6,13.4-3.5,17.1,1.9c7.5-16.5,22.5-29.5,40-34.5
		c4.5-1.3,9.4-2.1,13.8-0.7c9.9,3,14,14.5,16.7,24.4c0-14.6,8.1-28.9,20.6-36.5c1.3-0.8,2.8-1.5,4.3-1.5c1.7,0.1,3.3,1.1,4.7,2.2
		c14.6,11.5,23.2,30.3,22.4,48.8c-1.9-8.9-1-20.5,7.4-24.1c5.5-2.4,12.1,0.1,16.3,4.4c4.2,4.3,6.6,10,8.8,15.5
		c8.1-5.3,20.9,1.5,21.1,11.2c-7.4,0.4-10.1,9.8-14.4,15.8c-7.7,10.5-25.8,10.6-33.5,0.1c-0.4,8.4-10.2,12.4-18.4,14.5
		c-6.7,1.7-13.6,3.4-20.5,2.5c-6.9-0.9-13.7-5.2-15.7-11.8c-14.2,9.2-33,11-48.7,4.7c-1.4-0.6-2.9-1.2-4.5-1.2
		c-1.7,0-3.2,0.8-4.8,1.5c-5.1,2.2-11,2.9-16.2,0.8c-5.2-2-9.2-7.2-9.1-12.7c-2.7,1.6-5.9,2.8-8.9,2.2s-5.9-3.3-5.7-6.4
		c0.3-3.1,4.6-5.3,6.9-3.1"/>
</g>
<g>
	<linearGradient id="SVGID_3_" gradientUnits="userSpaceOnUse" x1="4.8717" y1="46.9935" x2="205.2312" y2="46.9935">
		<stop  offset="0" style="stop-color:#EE2A7B"/>
		<stop  offset="1" style="stop-color:#2484C6;stop-opacity:0"/>
	</linearGradient>
	<path class="st3" d="M15,64.6c-6-2.5-7.6-11.7-3-16.4s13.4-3.5,17.1,1.9c7.5-16.5,22.5-29.5,40-34.5c4.5-1.3,9.4-2.1,13.8-0.7
		c9.9,3,14,14.5,16.7,24.4c0-14.6,8.1-28.9,20.6-36.5c1.3-0.8,2.8-1.5,4.3-1.5c1.7,0.1,3.3,1.1,4.7,2.2
		c14.6,11.5,23.2,30.3,22.4,48.8c-1.9-8.9-1-20.5,7.4-24.1c5.5-2.4,12.1,0.1,16.3,4.4c4.2,4.3,6.6,10,8.8,15.5
		c8.1-5.3,20.9,1.5,21.1,11.2c-7.4,0.4-10.1,9.8-14.4,15.8c-7.7,10.5-25.8,10.6-33.5,0.1c-0.4,8.4-10.2,12.4-18.4,14.5
		c-6.7,1.7-13.6,3.4-20.5,2.5c-6.9-0.9-13.7-5.2-15.7-11.8c-14.2,9.2-33,11-48.7,4.7c-1.4-0.6-2.9-1.2-4.5-1.2
		c-1.7,0-3.2,0.8-4.8,1.5c-5.1,2.2-11,2.9-16.2,0.8c-5.2-2-9.2-7.2-9.1-12.7c-2.7,1.6-5.9,2.8-8.9,2.2s-5.9-3.3-5.7-6.4
		c0.3-3.1,4.6-5.3,6.9-3.1"/>
</g>
<g>
	<g>
		<path class="st1" d="M33,243.7c16.1-0.5,31.3,8.7,37.1,24c2.5,6.7,3.6,14.8,1.6,21.8c-2.2,7.8-12.8,9.3-19.7,11
			c-4.2,1-8.5,1.8-12.8,2.3c-3.5,0.4-8.3,1.5-11.8,0.8c-1.9,0.6-2.6-0.1-2.1-2.3c0.2-0.5,0.5-1,0.7-1.5c0.6-1.8,1.5-3.5,2.2-5.3
			c1.2-3.2,2.2-6.4,3-9.8c3.5-14.3,3.4-29.2-0.3-43.5c-0.8-3.1-5.6-1.8-4.8,1.3c4,15.6,3.5,32.1-1.6,47.4c-1.2,3.7-2.9,7.1-4.4,10.7
			c-0.9,2.1-1.4,4.3,0.3,6.2c3.6,3.9,13.3,1.6,17.9,1.1c7.5-0.8,14.9-2.3,22-4.5c5.4-1.7,11.9-3.3,14.7-8.7
			c5.8-10.8,2-26.9-4.3-36.6C62.6,245.3,48,238.2,33,238.7C29.8,238.8,29.8,243.8,33,243.7L33,243.7z"/>
	</g>
</g>
<g>
	<g>
		<path class="st1" d="M243.6,257.1c11-2.6,22.7,4.6,31,11.2c7.7,6.1,14.5,15,11.9,25.4c-2.5,10-11.7,16.8-21.2,19.5
			c-5.4,1.6-10.9,2.1-16.5,2.3c-4.9,0.1-13.1,1.3-17.2-2c0.1,1,0.3,2,0.4,3c6.5-9.2,9.8-20.2,9.8-31.5c0-5.3-0.8-10.7-2.5-15.7
			c-0.8-2.7-2-5.1-3.1-7.7c-0.9-2.1-1.4-1.4,1-2.3c1.6-0.6,3.7-0.7,5.4-1c3.2-0.6,1.8-5.4-1.3-4.8c-3.6,0.7-11,0.5-11.2,5.7
			c-0.1,2.3,1.6,4.5,2.5,6.4c1.5,3.3,2.6,6.8,3.3,10.3c2.7,13.3-0.4,27.1-8.1,38.2c-0.6,0.8-0.4,2.4,0.4,3
			c4.7,3.8,10.6,3.5,16.3,3.5c7.2,0,14.5-0.4,21.4-2.3c11.5-3.1,22.5-11.3,25.5-23.3c3-11.8-3.7-22.5-12.6-29.8
			c-9.9-8.1-23.3-16.1-36.5-13C239.2,253,240.5,257.8,243.6,257.1L243.6,257.1z"/>
	</g>
</g>
<g>
	<path class="st1" d="M438.4,295.5c3.9-1.7,8.4-2.1,12.6-1.3"/>
	<g>
		<path class="st1" d="M439.1,297.9c3.6-1.4,7.4-2,11.2-1.3c3.1,0.5,4.5-4.3,1.3-4.8c-4.7-0.8-9.4-0.4-13.9,1.3
			C434.8,294.3,436.1,299.1,439.1,297.9L439.1,297.9z"/>
	</g>
</g>
<g>
	<path class="st1" d="M434.1,291.8c10.8-1.5,30.1,2,38.6,8.9c8.5,6.8,14.1,17.2,15,28.1c0.5,5.4-0.2,11.1-2.9,15.8
		c-5.3,9.3-16.9,12.9-27.6,14.1c-7.8,0.9-16,0.9-23.1-2.4c6.4,0.7,12.1-4.5,15.1-10.3"/>
	<g>
		<path class="st1" d="M434.1,294.3c9.6-1.1,19.9,0.5,28.9,4c10.9,4.1,18.5,13.9,21.3,25.1c3.2,12.8-1.2,24.8-13.9,29.8
			c-10.9,4.2-24.8,5.3-35.6,0.8c-0.2,1.6-0.4,3.3-0.7,4.9c7.8,0.4,13.6-5.1,17.3-11.5c1.6-2.8-2.7-5.3-4.3-2.5
			c-2.8,5-6.9,9.3-12.9,9c-3.1-0.1-3.1,3.9-0.7,4.9c12.2,5.1,28.3,3.6,40.2-1.6c12.5-5.5,18.1-17.1,16.3-30.5
			c-1.7-12.5-9.3-25.3-20.9-31.1c-10.3-5.2-23.5-7.5-35-6.2C431,289.7,430.9,294.7,434.1,294.3L434.1,294.3z"/>
	</g>
</g>
<g>
	<g>
		<path class="st1" d="M-69,429.6c10.3-1.2,19.7,5.4,26.9,12.1c7,6.5,12.8,15.2,12.6,25.1c-0.2,10.6-7.3,17.3-16.7,20.9
			c-10.3,4-21.6,6-32.5,6.9c-3.2,0.3-3.3,5.1,0,5c18.1-0.4,21-22.2,20.6-36.2c-0.3-8.7-1.4-18.2-4.3-26.4c-2-5.7-5.5-10.7-11.9-11.2
			c0,1.7,0,3.3,0,5c1.5-0.1,2.9-0.3,4.4-0.4c3.2-0.3,3.2-5.3,0-5c-1.5,0.1-2.9,0.3-4.4,0.4c-3.2,0.3-3.2,4.7,0,5
			c6.1,0.5,7.7,9.1,8.7,13.8c1.4,6.2,2.3,12.5,2.5,18.9c0.3,10.8-0.8,30.8-15.6,31.2c0,1.7,0,3.3,0,5c20.2-1.8,53.8-6.5,54.2-32.9
			c0.2-11.2-6.1-21.2-14.1-28.6c-8.1-7.6-18.8-14.9-30.4-13.5C-72.1,425-72.2,430-69,429.6L-69,429.6z"/>
	</g>
</g>
<g>
	<g>
		<path class="st1" d="M97.7,391.7c19.1-3.3,52.5,7.1,52,31.1c-0.3,11.5-10.7,17.9-20.7,20.6c-10.7,2.9-22.1,1.6-31.8-3.6
			c-0.2,1.5-0.4,3-0.6,4.6c8.7-2.6,12.7-11.3,13.4-19.7c1-11.7-3-23.5-10-32.7c-1.9-2.5-6.3,0-4.3,2.5c5.7,7.5,9.2,16.3,9.5,25.8
			c0.2,7.4-1.8,16.9-9.8,19.4c-2,0.6-2.5,3.5-0.6,4.6c11.6,6.2,25.3,7.6,37.9,3.5c11-3.6,21.2-11,22.1-23.4
			c2-28.4-35.6-41.2-58.3-37.3C93.2,387.4,94.6,392.2,97.7,391.7L97.7,391.7z"/>
	</g>
</g>
<g>
	<g>
		<path class="st1" d="M619.9,278.1c31-8.5,68,2.5,80.9,34.2c3.4,8.3,4.1,17.2-1.9,24.5c-5.1,6.2-12.7,10.2-20.1,12.9
			c-15.2,5.6-31.8,5.9-47.8,6c-3.2,0-3.2,5,0,5c14.6-0.1,29.4-0.4,43.6-4.4c12-3.4,26.1-9.9,31.7-21.8c5.7-12.1-0.7-26.6-8-36.6
			c-7.4-10.1-17.7-18-29.4-22.6c-16.1-6.4-33.9-6.5-50.4-1.9C615.4,274.1,616.7,279,619.9,278.1L619.9,278.1z"/>
	</g>
</g>
<g>
	<g>
		<path class="st1" d="M626.4,32c16.8-3.8,35.7,16.3,36.3,32.2c0.9,21.9-23.9,23.6-39.9,23.1c-3.3-0.1-3.1,4.7,0,5
			c11.9,1.2,14.4-14.3,15-23.1c0.9-12.3-2.1-24.6-8.1-35.3c-1.6-2.8-5.9-0.3-4.3,2.5c4.5,8,7.2,16.8,7.6,26
			c0.3,6.9,0,25.9-10.2,24.8c0,1.7,0,3.3,0,5c11,0.4,22.8,0.6,32.5-5.3c8.6-5.2,13.2-14.3,12.3-24.4c-1.7-18.7-22.9-39.9-42.5-35.4
			C621.9,27.9,623.3,32.7,626.4,32L626.4,32z"/>
	</g>
</g>
<g>
	<g>
		<path class="st1" d="M479.2-6.2c10.6,3.1,21.5,8.1,29.7,15.7c4.4,4.1,7.2,9.1,9.7,14.4c2.5,5.4,5.7,11,7.4,16.7
			c3.4,11.3-17.6,17.8-25.9,19.5c-12.2,2.5-24.8,1.6-37.1,0.8c-3.2-0.2-3.2,4.8,0,5c14.6,1,29.7,1.9,43.9-2.4
			c8.5-2.6,25.2-9.4,24.8-20.4c-0.3-6.2-4.9-13.1-7.4-18.7c-2.6-5.8-5.3-11.5-9.6-16.3c-8.8-9.6-21.8-15.6-34.1-19.3
			C477.5-11.9,476.2-7.1,479.2-6.2L479.2-6.2z"/>
	</g>
</g>
<g>
	<path class="st1" d="M77.9,10.3c10.9,0.4,21.7,2.2,32.1,5.5c5.5,1.7,11.1,4,14.6,8.6c3.6,4.7,4.3,10.9,4.8,16.7
		c0.8,7.7,1.4,15.8-2.1,22.7c-2.5,4.9-6.9,8.6-11.5,11.6c-9.4,6.1-21.4,9.9-31.9,5.9c-6.8-2.6-12.1-8-16.7-13.5c0.5-1.8,3-2,4.9-1.9
		c12.7,0.3,24.7-10.5,25.6-23.2c1-12.7-9.3-25.2-21.9-26.8c-1.1-3.3,3.1-5.8,6.5-6.6c9.4-2.4,19.9-3.2,28.5,1.3
		c7.5,4,12.5,11.5,16.4,19.1c4.7,9,8.3,20,3.6,29.1"/>
	<g>
		<path class="st1" d="M77.9,12.8c12.5,0.5,26.9,2.2,38.2,8c7,3.6,9.6,9.6,10.5,17.1c0.7,5.8,1.4,11.9,0.6,17.8
			c-1.8,12.6-14.5,20.6-26,23.6C87.5,82.8,77.7,76,69,65.9c0.1,1,0.3,2,0.4,3c0.7-1.2,4.4-0.7,5.5-0.8c1.8-0.2,3.7-0.5,5.4-1.1
			c3.2-1,6.2-2.6,8.9-4.7c5.7-4.4,9.8-10.9,10.8-18.1c2-14.6-9.2-28.6-23.5-30.9c0.6,0.6,1.2,1.2,1.7,1.7
			c-0.8-4.8,16.1-5.5,18.6-5.4c7.4,0.1,14,2.6,19.2,7.9c9,9.1,18.5,27.1,12.6,39.7c-1.3,2.9,3,5.4,4.3,2.5
			c4.1-8.9,2.4-18.2-1.4-26.9c-3.7-8.5-8.8-17.1-16.4-22.6C107.6,4.7,98,4,88.9,5.3C82.7,6.2,72.1,8,73.5,16.5
			c0.1,0.8,1,1.6,1.7,1.7c14,2.2,24.5,17.5,18.2,31.2c-2.8,6.2-8.5,11.1-15.1,13.1c-4.3,1.3-10.7-0.6-13.3,4c-0.6,1-0.3,2.2,0.4,3
			c9.6,11.2,21.1,18.4,36.3,14.8c12.5-3,26.9-11.9,29.9-25.2c1.7-7.4,0.7-15.4-0.3-22.8c-0.9-6.5-3-12.7-8.3-16.9
			c-5.5-4.4-12.8-6.3-19.4-8c-8.4-2.1-17.1-3.2-25.8-3.6C74.7,7.6,74.7,12.6,77.9,12.8L77.9,12.8z"/>
	</g>
</g>
<g>
	<linearGradient id="SVGID_4_" gradientUnits="userSpaceOnUse" x1="4.8717" y1="64.3382" x2="165.1593" y2="64.3382">
		<stop  offset="0" style="stop-color:#EE2A7B"/>
		<stop  offset="1" style="stop-color:#2484C6;stop-opacity:0"/>
	</linearGradient>
	<path class="st4" d="M12.9,78.4c-4.8-2-6.1-9.4-2.4-13.1c3.7-3.7,10.7-2.8,13.7,1.5c6-13.2,18-23.6,32-27.6c3.6-1,7.5-1.7,11.1-0.6
		c7.9,2.4,11.2,11.6,13.4,19.5c0-11.7,6.5-23.1,16.5-29.2c1.1-0.6,2.2-1.2,3.4-1.2c1.4,0,2.6,0.9,3.7,1.8
		c11.7,9.2,18.5,24.2,18,39.1c-1.5-7.1-0.8-16.4,5.9-19.3c4.4-1.9,9.7,0.1,13.1,3.5s5.2,8,7,12.4c6.5-4.2,16.7,1.2,16.9,9
		c-5.9,0.3-8,7.8-11.6,12.6c-6.1,8.4-20.7,8.5-26.8,0.1c-0.3,6.7-8.2,10-14.7,11.6c-5.4,1.4-10.9,2.7-16.4,2s-11-4.1-12.6-9.4
		c-11.4,7.4-26.4,8.8-39,3.8c-1.2-0.5-2.3-1-3.6-1c-1.3,0-2.6,0.7-3.8,1.2c-4.1,1.8-8.8,2.3-12.9,0.7c-4.1-1.6-7.4-5.7-7.2-10.2
		c-2.2,1.3-4.7,2.2-7.2,1.8C7,87,4.7,84.8,4.9,82.3s3.7-4.2,5.5-2.5"/>
</g>
</svg>
