<?xml version="1.0" encoding="utf-8"?>
<!-- Generator: Adobe Illustrator 22.1.0, SVG Export Plug-In . SVG Version: 6.00 Build 0)  -->
<svg version="1.1" xmlns="http://www.w3.org/2000/svg" xmlns:xlink="http://www.w3.org/1999/xlink" x="0px" y="0px"
	 viewBox="0 0 193.2 167" style="enable-background:new 0 0 193.2 167;" xml:space="preserve">
<style type="text/css">
	.st0{fill:url(#SVGID_1_);}
	.st1{fill:url(#SVGID_2_);}
	.st2{fill:url(#SVGID_3_);}
	.st3{fill:url(#SVGID_4_);}
	.st4{fill:url(#SVGID_5_);}
</style>
<g id="Слой_1">
	<g>
		<linearGradient id="SVGID_1_" gradientUnits="userSpaceOnUse" x1="15.1273" y1="86.2498" x2="193.2065" y2="86.2498">
			<stop  offset="0" style="stop-color:#EC228B"/>
			<stop  offset="1" style="stop-color:#2483C5;stop-opacity:0"/>
		</linearGradient>
		<path class="st0" d="M22.5,125.4c-5.7-13.8-8.2-28.9-7.1-43.8c0.3-3.7,0.8-7.5,3-10.5c2.2-3,6.4-4.8,9.7-3.2
			c2.6,1.3,4.5,4.6,7.4,4.3c2.2-0.2,3.5-2.4,4.5-4.4c4.1-8.5,7-18,14.1-24.2s20.3-6.6,24.2,1.9c2.3,5.1,1,12.2,5.5,15.5
			c3.2,2.3,7.8,1.2,11.1-1c3.3-2.2,5.8-5.3,9.1-7.5c10.5-7.1,27.3-0.4,30.1,11.9c0.4,1.8,0.6,3.7,1.9,5.1c0.9,1,2.3,1.5,3.6,1.8
			c7.4,1.7,15.6-0.2,21.5-5.2c2.8-2.4,5.6-5.6,9.3-5.2c1.7,0.2,3.1,1.1,4.5,2c9.6,6,20.5,15.1,18,26.2c-3.8-3.6-10.4,0.7-11.8,5.8
			c-1.4,5.1,0.1,10.6-1,15.8c-1.9,9.5-13.1,15.8-22.2,12.6c-7.5-2.7-15.7-10.3-21.7-5.1c-2.8,2.5-3.1,6.8-5,10
			c-3.5,5.9-12,7-18.2,4.3s-10.9-8.1-15.2-13.4c-2.6-3.1-6.3-6.4-10-4.9c-1.6,0.7-2.7,2.1-3.7,3.5c-6.4,8.5-15.6,17.3-26.1,15.2
			c-7.6-1.5-14.1-8.8-21.8-7.4c-5.7,1.1-11.9,6.7-16.2,2.8"/>
	</g>
</g>
<g id="Слой_2">
	<g>
		
			<linearGradient id="SVGID_2_" gradientUnits="userSpaceOnUse" x1="59.767" y1="180.5509" x2="131.1625" y2="180.5509" gradientTransform="matrix(1 0 0 -1 0 282.1102)">
			<stop  offset="0" style="stop-color:#FFF23A"/>
			<stop  offset="4.472694e-04" style="stop-color:#FEF23A"/>
			<stop  offset="3.341528e-02" style="stop-color:#C6E13E"/>
			<stop  offset="6.685578e-02" style="stop-color:#94D341"/>
			<stop  offset="0.101" style="stop-color:#6AC644"/>
			<stop  offset="0.1355" style="stop-color:#48BC47"/>
			<stop  offset="0.1704" style="stop-color:#2DB449"/>
			<stop  offset="0.2058" style="stop-color:#1AAE4A"/>
			<stop  offset="0.2422" style="stop-color:#0FAB4B"/>
			<stop  offset="0.2809" style="stop-color:#0BAA4B"/>
			<stop  offset="0.6685" style="stop-color:#F28F3F"/>
			<stop  offset="0.8876" style="stop-color:#156B36"/>
			<stop  offset="1" style="stop-color:#69BD45"/>
		</linearGradient>
		<path class="st1" d="M74.4,125.3c-5.9,0.6-10.2-5.5-12.2-11.2c-2.3-6.6-3.3-13.9-1.8-20.7c1.6-6.8,6.1-13.2,12.5-16
			c3-1.3,6.8-1.7,9.4,0.3c1.6,1.2,2.6,3.2,4.4,3.8c2.4,0.8,4.8-0.9,6.5-2.8s3.3-4.1,5.7-4.7c4.9-1.2,8.9,4.8,13.9,4.7
			c0.9,0,1.9-0.2,2.8-0.2c4.1,0,7,4.2,7.8,8.2s0.4,8.3,1.8,12.1c1.7,4.6,5.8,8.5,5.7,13.4c-0.1,3.5-2.4,6.6-5.3,8.5
			c-2.9,1.9-6.3,2.8-9.7,3.7c-7.8,2.1-15.6,4.2-23.6,4.7s-16.4-0.8-23.2-5"/>
		<g>
			
				<linearGradient id="SVGID_3_" gradientUnits="userSpaceOnUse" x1="59.267" y1="180.4903" x2="131.6625" y2="180.4903" gradientTransform="matrix(1 0 0 -1 0 282.1102)">
				<stop  offset="0" style="stop-color:#FFF23A"/>
				<stop  offset="4.472694e-04" style="stop-color:#FEF23A"/>
				<stop  offset="3.341528e-02" style="stop-color:#C6E13E"/>
				<stop  offset="6.685578e-02" style="stop-color:#94D341"/>
				<stop  offset="0.101" style="stop-color:#6AC644"/>
				<stop  offset="0.1355" style="stop-color:#48BC47"/>
				<stop  offset="0.1704" style="stop-color:#2DB449"/>
				<stop  offset="0.2058" style="stop-color:#1AAE4A"/>
				<stop  offset="0.2422" style="stop-color:#0FAB4B"/>
				<stop  offset="0.2809" style="stop-color:#0BAA4B"/>
				<stop  offset="0.6685" style="stop-color:#F28F3F"/>
				<stop  offset="0.8876" style="stop-color:#156B36"/>
				<stop  offset="1" style="stop-color:#69BD45"/>
			</linearGradient>
			<path class="st2" d="M74.4,122.8c-9.5,0.2-12.2-15.4-12.2-22.4c0-7.9,3.4-16.4,10.8-20.1c2.8-1.4,5.9-2,8.5,0.1
				c1.1,0.9,1.8,2.1,3,2.9c2,1.2,4.2,1.3,6.4,0.4c3.2-1.3,5.5-6.5,8.7-7.2c3.2-0.6,6.7,3,9.6,4.1c3.9,1.4,8.2-0.7,10.7,3.5
				c2.1,3.6,1.6,8.1,2.2,12c1.4,8,11.8,16.6,1.6,22.9c-4,2.5-9.2,3.3-13.7,4.5c-4.6,1.2-9.2,2.3-13.9,2.8
				c-8.9,1.1-17.8,0.2-25.7-4.3c-2.8-1.6-5.3,2.7-2.5,4.3c15.9,9.2,35.6,4.9,52.2-0.4c6.8-2.2,14.2-7,13.4-15.1
				c-0.3-3.4-2.3-6.3-4-9.2c-2.5-4.5-2.5-8.9-3.3-13.8c-0.5-3.3-1.7-6.6-4.1-8.9c-2.9-2.9-5.5-2.3-9.3-2.6c-3.6-0.2-6.3-3.4-9.7-4.4
				c-3-0.9-5.8-0.3-8.3,1.6c-1.6,1.2-2.6,3.2-4.3,4.3c-2.7,1.8-3.7,0.7-5.6-1c-2.4-2.2-5.3-3.2-8.6-2.8c-7,0.7-12.9,6.2-16,12.2
				c-4.3,8.3-3.9,18.1-1.2,26.9c2.2,7.1,6.8,14.8,15.1,14.7C77.7,127.7,77.7,122.7,74.4,122.8L74.4,122.8z"/>
		</g>
	</g>
	<g>
		
			<linearGradient id="SVGID_4_" gradientUnits="userSpaceOnUse" x1="51.1289" y1="199.5208" x2="145.2884" y2="199.5208" gradientTransform="matrix(1 0 0 -1 0 282.1102)">
			<stop  offset="0" style="stop-color:#2484C6"/>
			<stop  offset="1" style="stop-color:#2484C6;stop-opacity:0"/>
		</linearGradient>
		<path class="st3" d="M116.3,135.1c-9.6,1.9-19.3,3.8-29.1,3.4s-19.7-3.7-26.6-10.6C49,116.1,49.3,96.8,54.9,81.2
			c3.6-10,9.5-19.8,19-24.4c3.5-1.7,7.4-2.6,10.5-4.9s5.1-6.9,3.1-10.2c-1.8-2.9-5.8-3.5-8.9-4.8s-5.9-5.6-3.4-8
			c1-1,2.5-1.1,3.9-1.3c8.7-0.8,17.4-1.2,26.2-1c4.4,0.1,10.6,2.6,9,6.7c-0.9,2.3-3.7,3.1-5.7,4.6c-4.3,3.6-2.7,11,1.2,15
			s9.5,6.1,13.9,9.6c12.1,9.5,13.7,26.8,18.6,41.4c2.2,6.4,5,14,0.9,19.3c-1.4,1.8-3.4,3-5.4,4.2c-8.9,5.3-19,10.9-29.2,8.8"/>
	</g>
	<g>
		
			<linearGradient id="SVGID_5_" gradientUnits="userSpaceOnUse" x1="15.3888" y1="120.8853" x2="140.0442" y2="120.8853" gradientTransform="matrix(0.9995 3.137018e-02 -3.137018e-02 0.9995 3.6185 -3.0248)">
			<stop  offset="0" style="stop-color:#EC228B"/>
			<stop  offset="1" style="stop-color:#2483C5;stop-opacity:0"/>
		</linearGradient>
		<path class="st4" d="M19.5,145.8c-3.7-9.8-5.1-20.4-4-30.8c0.3-2.6,0.7-5.3,2.3-7.3s4.6-3.2,6.8-2c1.8,1,3.1,3.3,5.1,3.1
			c1.5-0.1,2.5-1.6,3.2-3c3.1-5.8,5.3-12.4,10.4-16.7c5.1-4.2,14.4-4.2,16.9,1.9c1.5,3.6,0.4,8.5,3.5,10.9c2.2,1.7,5.4,1,7.8-0.4
			s4.2-3.6,6.5-5.1c7.5-4.7,19.1,0.3,20.8,9c0.2,1.3,0.3,2.6,1.2,3.6c0.6,0.7,1.6,1.1,2.5,1.3c5.2,1.4,11,0.2,15.1-3.1
			c2-1.6,4.1-3.8,6.6-3.4c1.2,0.2,2.2,0.8,3.1,1.5c6.6,4.4,14,11,12,18.7c-2.6-2.6-7.3,0.3-8.4,3.8s-0.2,7.4-1,11
			c-1.5,6.6-9.5,10.8-15.8,8.3c-5.2-2-10.8-7.6-15.1-4c-2,1.7-2.3,4.7-3.7,6.9c-2.6,4-8.5,4.6-12.9,2.6c-4.3-2-7.4-5.9-10.4-9.7
			c-1.7-2.2-4.3-4.6-6.9-3.7c-1.1,0.4-1.9,1.4-2.7,2.4c-4.7,5.8-11.3,11.8-18.6,10c-5.3-1.2-9.7-6.5-15.1-5.7
			c-4,0.6-8.5,4.4-11.4,1.6"/>
	</g>
</g>
<g id="Слой_3">
</g>
</svg>
