<?xml version="1.0" encoding="utf-8"?>
<!-- Generator: Adobe Illustrator 22.1.0, SVG Export Plug-In . SVG Version: 6.00 Build 0)  -->
<svg version="1.1" xmlns="http://www.w3.org/2000/svg" xmlns:xlink="http://www.w3.org/1999/xlink" x="0px" y="0px"
	 viewBox="0 0 193.2 167" style="enable-background:new 0 0 193.2 167;" xml:space="preserve">
<style type="text/css">
	.st0{fill:url(#SVGID_1_);}
	.st1{fill:url(#SVGID_2_);stroke:url(#SVGID_3_);stroke-miterlimit:10;}
	.st2{fill:url(#SVGID_4_);stroke:url(#SVGID_5_);stroke-miterlimit:10;}
	.st3{fill:url(#SVGID_6_);}
	.st4{fill:url(#SVGID_7_);}
</style>
<g id="Слой_1">
	<g>
		<linearGradient id="SVGID_1_" gradientUnits="userSpaceOnUse" x1="15.1273" y1="86.2498" x2="193.2065" y2="86.2498">
			<stop  offset="0" style="stop-color:#EC228B"/>
			<stop  offset="1" style="stop-color:#2483C5;stop-opacity:0"/>
		</linearGradient>
		<path class="st0" d="M22.5,125.4c-5.7-13.8-8.2-28.9-7.1-43.8c0.3-3.7,0.8-7.5,3-10.5c2.2-3,6.4-4.8,9.7-3.2
			c2.6,1.3,4.5,4.6,7.4,4.3c2.2-0.2,3.5-2.4,4.5-4.4c4.1-8.5,7-18,14.1-24.2s20.3-6.6,24.2,1.9c2.3,5.1,1,12.2,5.5,15.5
			c3.2,2.3,7.8,1.2,11.1-1c3.3-2.2,5.8-5.3,9.1-7.5c10.5-7.1,27.3-0.4,30.1,11.9c0.4,1.8,0.6,3.7,1.9,5.1c0.9,1,2.3,1.5,3.6,1.8
			c7.4,1.7,15.6-0.2,21.5-5.2c2.8-2.4,5.6-5.6,9.3-5.2c1.7,0.2,3.1,1.1,4.5,2c9.6,6,20.5,15.1,18,26.2c-3.8-3.6-10.4,0.7-11.8,5.8
			c-1.4,5.1,0.1,10.6-1,15.8c-1.9,9.5-13.1,15.8-22.2,12.6c-7.5-2.7-15.7-10.3-21.7-5.1c-2.8,2.5-3.1,6.8-5,10
			c-3.5,5.9-12,7-18.2,4.3s-10.9-8.1-15.2-13.4c-2.6-3.1-6.3-6.4-10-4.9c-1.6,0.7-2.7,2.1-3.7,3.5c-6.4,8.5-15.6,17.3-26.1,15.2
			c-7.6-1.5-14.1-8.8-21.8-7.4c-5.7,1.1-11.9,6.7-16.2,2.8"/>
	</g>
</g>
<g id="Слой_2">
	<g>
		
			<linearGradient id="SVGID_2_" gradientUnits="userSpaceOnUse" x1="64.9144" y1="193.0094" x2="121.7064" y2="200.8441" gradientTransform="matrix(0.9906 0.1367 0.1367 -0.9906 -28.3992 267.4677)">
			<stop  offset="0" style="stop-color:#FFF23A"/>
			<stop  offset="4.010540e-02" style="stop-color:#FEE62D"/>
			<stop  offset="0.1171" style="stop-color:#FED41A"/>
			<stop  offset="0.1964" style="stop-color:#FDC90F"/>
			<stop  offset="0.2809" style="stop-color:#FDC60B"/>
			<stop  offset="0.6685" style="stop-color:#F28F3F"/>
			<stop  offset="0.8876" style="stop-color:#ED693C"/>
			<stop  offset="1" style="stop-color:#E83E39"/>
		</linearGradient>
		<linearGradient id="SVGID_3_" gradientUnits="userSpaceOnUse" x1="61.783" y1="85.1404" x2="120.1129" y2="85.1404">
			<stop  offset="0" style="stop-color:#FFF23A"/>
			<stop  offset="4.010540e-02" style="stop-color:#FEE62D"/>
			<stop  offset="0.1171" style="stop-color:#FED41A"/>
			<stop  offset="0.1964" style="stop-color:#FDC90F"/>
			<stop  offset="0.2809" style="stop-color:#FDC60B"/>
			<stop  offset="0.6685" style="stop-color:#F28F3F"/>
			<stop  offset="0.8876" style="stop-color:#ED693C"/>
			<stop  offset="1" style="stop-color:#E83E39"/>
		</linearGradient>
		<path class="st1" d="M65.9,68.1c-3.3,11.9-4.4,24.2-3.2,36.5c0.1,1,0.2,2,0.9,2.9c1,1,2.5,1,3.8,1c4.6,0.2,8.9,2,13.4,3.2
			c10.5,2.7,22,1.3,31.7-3.6c1.5-0.8,3.1-1.7,4-3.2c0.7-1.2,0.9-2.7,1-4.1c0.6-5.9,1.1-11.8,1.7-17.7c0.6-5.6,1-11.6-1.8-16.4
			s-10.2-7.5-14.1-3.5c-1.6,1.6-2.5,4.1-4.6,4.9c-2.8,1-5.6-1.3-7.1-3.8s-2.9-5.4-5.6-6.5c-3.1-1.2-6.5,0.5-9.4,2.1
			c-3.2,1.9-6.4,3.7-9.4,5.6"/>
		<g>
			
				<linearGradient id="SVGID_4_" gradientUnits="userSpaceOnUse" x1="64.2243" y1="192.849" x2="121.9869" y2="200.8176" gradientTransform="matrix(0.9906 0.1367 0.1367 -0.9906 -28.3992 267.4677)">
				<stop  offset="0" style="stop-color:#FFF23A"/>
				<stop  offset="4.010540e-02" style="stop-color:#FEE62D"/>
				<stop  offset="0.1171" style="stop-color:#FED41A"/>
				<stop  offset="0.1964" style="stop-color:#FDC90F"/>
				<stop  offset="0.2809" style="stop-color:#FDC60B"/>
				<stop  offset="0.6685" style="stop-color:#F28F3F"/>
				<stop  offset="0.8876" style="stop-color:#ED693C"/>
				<stop  offset="1" style="stop-color:#E83E39"/>
			</linearGradient>
			<linearGradient id="SVGID_5_" gradientUnits="userSpaceOnUse" x1="59.0922" y1="85.205" x2="122.5218" y2="85.205">
				<stop  offset="0" style="stop-color:#FFF23A"/>
				<stop  offset="4.010540e-02" style="stop-color:#FEE62D"/>
				<stop  offset="0.1171" style="stop-color:#FED41A"/>
				<stop  offset="0.1964" style="stop-color:#FDC90F"/>
				<stop  offset="0.2809" style="stop-color:#FDC60B"/>
				<stop  offset="0.6685" style="stop-color:#F28F3F"/>
				<stop  offset="0.8876" style="stop-color:#ED693C"/>
				<stop  offset="1" style="stop-color:#E83E39"/>
			</linearGradient>
			<path class="st2" d="M63.5,67.7c-2.2,8.4-3.5,16.9-3.6,25.4c-0.1,4.8-1.6,14.8,3.9,17.2c3.3,1.4,7.6,1.2,11.1,2.1
				c3.7,1.1,7.4,2.2,11.2,2.7c6.9,0.9,14,0.1,20.6-2c5.3-1.7,11.5-4,12.9-9.9c1.8-7.9,2.3-17.1,2.5-25.2c0.2-5.7-0.7-12.2-5.5-16.1
				c-3.5-2.9-8.8-4.2-12.9-2c-1.3,0.7-2.3,1.7-3.2,2.8c-0.4,0.5-0.7,1.3-1.2,1.6c-1.7,1.2-4.4-0.1-5.6-1.6c-2.1-2.4-2.9-5.4-6-7
				c-7.1-3.6-16.2,4.2-22,7.7c-2.7,1.6,0.2,5.6,3,3.9c3.8-2.2,7.9-5.2,11.9-6.8c5.5-2.2,7.2,3,9.9,6.4c2.9,3.5,7.7,5.2,11.3,2
				c2.8-2.4,3.7-6.2,8.3-4.9c4.1,1.1,6,4.7,6.7,8.6c1.3,7.6-0.7,16.3-1.5,23.8c-0.4,4.6-0.8,7.8-5.3,10c-3.7,1.8-7.8,3-11.8,3.6
				c-8.1,1.2-15.3-0.4-23.2-2.6c-1.4-0.4-2.6-0.8-4-1c-0.9-0.1-4-0.1-4.8-0.6c-2.8-1.6-1.7-11.4-1.6-13.9c0.3-8,1.6-15.9,3.6-23.6
				C69.2,65.3,64.3,64.6,63.5,67.7L63.5,67.7z"/>
		</g>
	</g>
	<g>
		
			<linearGradient id="SVGID_6_" gradientUnits="userSpaceOnUse" x1="54.7575" y1="214.5005" x2="135.5547" y2="214.5005" gradientTransform="matrix(0.9906 0.1367 0.1367 -0.9906 -28.3992 267.4677)">
			<stop  offset="0" style="stop-color:#2484C6"/>
			<stop  offset="1" style="stop-color:#2484C6;stop-opacity:0"/>
		</linearGradient>
		<path class="st3" d="M112.6,124.7c-0.8,2.4-4.3,2.5-6.9,2.2c-11.8-1.5-23.5-3.1-35.3-4.7c-5.7-0.8-12.1-1.9-15.7-6.4
			c-2.4-3.1-3-7.1-3.3-11c-1.3-16.1,1.4-32.6,7.8-47.6c3.9-9.1,10.6-18.5,20.4-19.4c2.2-0.2,4.7,0,6.4-1.3c3.7-2.9,1.1-9.8,4.6-12.9
			c-4.1-0.9-10.4-4.9-8.4-8.5c4.9-8.9,20.4-3.6,29.8-0.7c0.7,0.2,1.4,0.6,1.9,1.2c1.3,1.6,0.2,3.2-0.7,4.5
			c-3.3,4.9-5.1,10.8-5.2,16.7c0,1.5,0.1,3,0.7,4.4c0.9,1.8,2.7,3.1,4.4,4.2c6.8,4.5,13.9,9.5,16.5,17.2c1.2,3.6,1.2,7.5,1.2,11.3
			c-0.1,12.5-0.5,25.1-1.1,37.5c-0.2,2.6-0.3,5.3-2,7.3c-1.4,1.7-3.8,2.5-5.9,3.1c-4.5,1.4-9.1,2.8-13.5,4.1"/>
	</g>
	<g>
		
			<linearGradient id="SVGID_7_" gradientUnits="userSpaceOnUse" x1="9.1976" y1="113.3097" x2="187.2767" y2="113.3097" gradientTransform="matrix(0.9995 3.137018e-02 -3.137018e-02 0.9995 3.6185 -3.0248)">
			<stop  offset="0" style="stop-color:#EC228B"/>
			<stop  offset="1" style="stop-color:#2483C5;stop-opacity:0"/>
		</linearGradient>
		<path class="st4" d="M15.4,149.8c-5.3-14-7.3-29.2-5.7-44c0.4-3.7,1-7.5,3.3-10.4c2.2-2.9,6.5-4.6,9.8-2.9
			c2.6,1.4,4.4,4.7,7.3,4.5c2.2-0.2,3.6-2.3,4.6-4.2C39,84.4,42.2,75,49.5,69s20.5-6,24.2,2.7c2.2,5.2,0.6,12.2,5,15.6
			c3.1,2.4,7.8,1.5,11.1-0.6c3.3-2.1,6-5.2,9.3-7.3c10.7-6.7,27.3,0.4,29.7,12.9c0.3,1.8,0.5,3.7,1.7,5.1c0.9,1,2.3,1.5,3.6,1.9
			c7.4,2,15.6,0.3,21.6-4.5c2.9-2.3,5.8-5.4,9.5-4.9c1.6,0.2,3.1,1.2,4.5,2.1c9.4,6.3,20,15.7,17.2,26.7c-3.7-3.8-10.5,0.4-12,5.4
			c-1.5,5.1-0.3,10.6-1.5,15.8c-2.2,9.4-13.6,15.4-22.6,11.9c-7.4-2.9-15.4-10.8-21.5-5.8c-2.9,2.4-3.3,6.7-5.3,9.8
			c-3.7,5.8-12.2,6.6-18.4,3.7s-10.6-8.5-14.8-13.9c-2.5-3.1-6.1-6.6-9.8-5.2c-1.6,0.6-2.8,2-3.8,3.4c-6.7,8.3-16.2,16.8-26.5,14.4
			c-7.6-1.8-13.8-9.3-21.5-8.1c-5.7,0.9-12.1,6.3-16.2,2.3"/>
	</g>
</g>
<g id="Слой_3">
</g>
</svg>
